<?xml version="1.0" encoding="UTF-8"?>
<svg width="1400mm" height="800mm" version="1.1" viewBox="0 0 1400 800" xmlns="http://www.w3.org/2000/svg" xmlns:cc="http://creativecommons.org/ns#" xmlns:dc="http://purl.org/dc/elements/1.1/" xmlns:osb="http://www.openswatchbook.org/uri/2009/osb" xmlns:rdf="http://www.w3.org/1999/02/22-rdf-syntax-ns#" xmlns:xlink="http://www.w3.org/1999/xlink">
<metadata>
<rdf:RDF>
<cc:Work rdf:about="">
<dc:format>image/svg+xml</dc:format>
<dc:type rdf:resource="http://purl.org/dc/dcmitype/StillImage"/>
<dc:title/>
</cc:Work>
</rdf:RDF>
</metadata>
<g transform="translate(0,503)">
<rect x="-76.172" y="-566.28" width="1510.7" height="904.54" fill-opacity="0" opacity=".455" stroke="#cd853f" stroke-width=".26458"/>
<rect x="-76.172" y="-566.28" width="1510.7" height="904.54" fill="#ff9a02" fill-opacity=".95686" stroke="#cd853f" stroke-width=".26458"/>
<rect transform="matrix(.94703 .32114 0 1 0 0)" x="414.98" y="-592.41" width="586.48" height="541.21" fill="#fff" stroke="#cd853f" stroke-width=".12164"/>
<g transform="matrix(.37424 .1269 0 .36467 402.81 -311.78)">
<path d="m654.64 914.21c-175.1-19.814-323.66-103-425.64-238.35-33.669-44.687-73.534-120.91-89.513-171.15-54.903-172.63-24.789-361.86 81.259-510.6 30.393-42.629 95.362-106.98 139.66-138.34 65.867-46.625 150.49-83.56 227.33-99.219 165.86-33.799 337.08-0.2242 472.67 92.686 129.92 89.021 215.1 216.71 248.75 372.87 9.8919 45.911 9.9781 168.55 0.1511 215.29-46.464 221.02-205.98 392.51-423.81 455.64-68.365 19.812-164.75 28.651-230.85 21.171zm-70.228-101.15c1.6091-2.4765 4.0111-10.993 5.3378-18.926 3.721-22.248 12.968-18.82 12.968 4.8077 0 17.949 0.641 19.231 9.6154 19.231 8.9743 0 9.6153-1.282 9.6153-19.231 0-14.53 1.4103-19.231 5.7693-19.231 3.6004 0 5.7692-3.64 5.7692-9.6823v-9.6824l-43.269 1.0285-43.269 1.0285 0.052 24.386c0.042 19.853 1.4724 25.426 7.6923 29.979 8.2348 6.0278 24.731 3.969 29.72-3.7091h1e-4zm100.04-1.5524c10.794-9.7277 8.9266-33.357-3.4033-43.056-13.443-10.574-26.58-10.068-38.118 1.4691-28.418 28.418 11.627 68.526 41.521 41.587zm75.325 4.37c12.778-8.9504 10.2-26.114-4.1715-27.768-8.0059-0.9212-10.577 0.4344-10.577 5.5769 0 5.1459-1.08 5.7139-4.4524 2.3415-5.6713-5.6713 3.1568-17.637 10.838-14.69 3.5934 1.3789 5.153-1.4782 5.153-9.4403 0-9.6693-1.4993-11.418-9.7902-11.418-5.3846 0-14.038 4.2483-19.231 9.4406-14.916 14.916-11.062 40.884 7.157 48.225 12.109 4.8789 15.279 4.5921 25.074-2.2682zm98.14 1.8562c5.1724-2.3567 11.124-7.9817 13.225-12.5 3.754-8.0728 3.8902-8.0376 7.8639 2.0328 4.841 12.268 15.257 16.315 28.769 11.178 10.895-4.1424 15.735-19.488 13.511-42.838l-1.2576-13.203h-21.154c-20.492 0-21.194 0.3496-22.428 11.167l-1.274 11.168-4.577-9.1805c-9.5373-19.13-40.066-19.497-50.316-0.6055-3.8885 7.1665-5.7617 8.4485-5.8665 4.0153-0.2194-9.2783-15.091-18.487-29.856-18.487h-12.606v28.846c0 28.205 0.2139 28.846 9.6154 28.846 5.2885 0 9.7521-2.1635 9.9191-4.8077 0.243-3.8461 0.6916-3.8461 2.2435 0 1.067 2.6442 7.049 4.8077 13.293 4.8077 10.033 0 10.89-0.8653 7.3717-7.4395-2.1898-4.0916-3.975-10.582-3.967-14.423 0.012-4.9666 2.1563-3.4708 7.4304 5.1787 11.848 19.431 23.074 23.984 40.059 16.245zm-339.37-6.292c0.425-6.4102 0.53-6.4102 2.2052 0 1.0656 4.078 5.4375 6.7308 11.092 6.7308 8.8928 0 9.3334-1.144 9.3334-24.231 0-26.38-3.9648-33.462-18.736-33.462-16.769 0-23.572 10.162-23.572 35.212 0 21.415 0.4557 22.481 9.6154 22.481 6.4234 0 9.7635-2.2343 10.062-6.7308zm426.5 0c0.012-3.7019 5.2057-9.6791 11.538-13.283 13.076-7.4406 15.123-19.624 5.1488-30.645-7.9159-8.747-19.681-9.019-28.909-0.6683-5.2858 4.7836-7.0336 11.952-7.0336 28.846 0 21.415 0.4557 22.481 9.6154 22.481 6.5841 0 9.623-2.1219 9.6397-6.7308zm-52.821-305.09c248.27-223.32 292.68-263.47 323.89-292.91l19.287-18.186-69.231-0.53866c-38.077-0.29615-71.65-0.19923-74.606 0.21577-5.407 0.75908-37.355 29.252-69.578 62.053-9.5447 9.7159-32.066 30.181-50.046 45.479-17.981 15.297-35.288 30.723-38.462 34.278-7.0898 7.9446-64.554 54.501-67.27 54.501-1.0786 0-2.0706-101.68-2.2046-225.96l-0.2435-225.96-48.286-39.926c-26.557-21.959-51.111-40.132-54.564-40.385-5.7541-0.42049-6.3606 26.672-7.262 324.37-0.6323 208.84-2.3491 326.2-4.8077 328.65-2.5348 2.5348-3.8241-81.237-3.8241-248.46 0-199.74-1.0123-252.67-4.8608-254.15-2.6734-1.0259-58.491 45.709-124.04 103.86-269.03 238.65-238.49 213.37-248.26 205.46l-8.6204-6.9804 194.81-168.92 194.81-168.92v-56.851c1e-4 -46.42-1.0353-57.249-5.6425-59.017-3.7027-1.4209-96.262 79.447-269.23 235.22-144.97 130.56-263.59 238.53-263.59 239.92 0 1.3928 40.24 38.999 89.423 83.568 49.183 44.57 98.077 88.927 108.65 98.572 165.83 151.22 219.61 198 223.7 194.6 5.1504-4.2744 7.2624-144.79 2.2756-151.4-1.5958-2.1154-10.69-10.563-20.209-18.773-15.466-13.338-38.122-34.633-122.75-115.38-13.572-12.949-28.603-26.186-33.4-29.415-8.5806-5.7762-7.1105-7.3218 90.062-94.684l98.785-88.812 0.9569 248.53c0.5263 136.69 1.7701 250.69 2.7639 253.34 0.9939 2.6442 2.7664 4.8077 3.9388 4.8077 1.1725 0 108.1-95.318 237.62-211.82z" fill="#ff9a02" fill-opacity=".95686" stroke="#ff9a02" stroke-dasharray="9.25769231, 9.25769231" stroke-linecap="square" stroke-linejoin="bevel" stroke-opacity=".97647" stroke-width="9.2577"/>
<path d="m670.62 919.35c-4.3421-0.6021-18.553-2.3779-31.579-3.946-90.146-10.852-184.73-45.534-261.9-96.037-86.045-56.309-151.95-129.61-202.14-224.84-45.743-86.79-64.834-164.84-64.688-264.47 0.1412-95.932 17.451-170.77 59.039-255.26 31.756-64.516 61.574-104.87 118.75-160.69 53.589-52.326 89.307-77.86 152.7-109.16 76.603-37.821 145.19-56.365 233.76-63.195 114.98-8.8675 242.44 20.094 345.14 78.421 143.48 81.488 243.43 212.44 286.3 375.11 10.293 39.049 13.298 69.508 13.298 134.79 0 62.177-2.9849 94.848-11.906 130.32-51.023 202.87-197.57 361.57-394.82 427.56-36.703 12.28-65.374 18.886-109.06 25.131-33.515 4.7905-115.65 8.6727-132.89 6.2812zm71.087-105.1c-5.7703-2.0547-11.987-5.7817-13.816-8.2822-1.8354-2.51-3.3243-3.125-3.3243-1.373 0 4.1794 15.665 13.632 22.368 13.497 2.9857-0.06 0.7233-1.7223-5.2283-3.8417zm99.398 1.0464c-5.5598-1.6071-11.244-6.4895-16.574-14.236-5.6343-8.1891-9.8819-11.727-13.907-11.583-5.1313 0.184-4.9663 0.5103 1.4422 2.8509 3.9803 1.4537 7.2369 3.6443 7.2369 4.868 0 5.3681 18.057 21.008 23.995 20.783 5.2648-0.1992 4.9136-0.6289-2.1936-2.6833zm-327.06-2.26c0-1.4019-1.7763-1.8673-3.9474-1.0342-2.171 0.8331-3.9473 1.9802-3.9473 2.549s1.7763 1.0342 3.9473 1.0342c2.1711 0 3.9474-1.147 3.9474-2.549zm46.71 0.735c-2.5329-0.6619-4.6052-2.4982-4.6052-4.0807 0-1.5824-0.7107-2.1665-1.5794-1.2979-2.6282 2.6282 1.5922 7.2131 6.3399 6.8874 4.0119-0.2752 3.9966-0.4238-0.1552-1.5088zm17.611-0.5721c0.8111-1.3124-0.8953-1.7664-3.7921-1.0089-6.1447 1.6069-6.9214 3.395-1.4747 3.395 2.0856 0 4.4557-1.0737 5.2668-2.3861zm38.31 1.3773c0-0.5549-2.3701-1.6287-5.2668-2.3862s-4.6032-0.3035-3.7921 1.0089c1.4165 2.2919 9.0589 3.4538 9.0589 1.3773zm39.474-0.8681c-2.1711-0.8037-5.7237-2.7826-7.8948-4.3975-3.4301-2.5514-3.4741-2.3327-0.3357 1.6692 1.9865 2.5329 5.5391 4.5117 7.8948 4.3975 3.5827-0.1737 3.6376-0.4467 0.3357-1.6692zm22.859-2.7283c2.7614-2.5329 3.717-3.7649 2.1234-2.7377-1.5935 1.0271-5.7941 3.0244-9.3345 4.4384-4.0697 1.6254-4.8507 2.6323-2.1235 2.7377 2.3726 0.092 6.5731-1.9055 9.3346-4.4384zm81.088-0.6579c2.6197-2.8948 4.171-5.2632 3.4473-5.2632-0.7236 0-3.4591 2.3684-6.0788 5.2632-2.6198 2.8947-4.171 5.2631-3.4474 5.2631 0.7237 0 3.4592-2.3684 6.0789-5.2631zm26.164 2.877c0.8111-1.3124-0.8953-1.7664-3.792-1.0089-6.1447 1.6069-6.9215 3.395-1.4748 3.395 2.0857 0 4.4557-1.0737 5.2668-2.3861zm25.111-0.9033c-0.021-1.8092-1.3091-5.0658-2.8598-7.2369-2.2762-3.1866-2.5759-2.8305-1.5549 1.8475 0.6956 3.1872-0.09 6.3503-1.7454 7.0291-1.6556 0.6788-0.9377 1.3277 1.5952 1.442 2.5329 0.1142 4.5871-1.2725 4.5649-3.0817zm50.407-2.1299 6.2126-5.4193-7.8948 4.6228c-10.391 6.0844-10.545 6.2158-7.309 6.2158 1.5282 0 5.5742-2.4387 8.9912-5.4193zm24.392-1.1596c-2.3708-3.6184-4.8365-6.579-5.4791-6.579-1.2897 0 1.1921 4.7673 5.1373 9.8685 4.5312 5.8588 4.7782 3.4813 0.3418-3.2895zm25.578 1.9737c3.1385-4.0019 3.0945-4.2206-0.3357-1.6692-2.171 1.6149-5.7237 3.5938-7.8947 4.3975-3.302 1.2225-3.2471 1.4954 0.3357 1.6692 2.3556 0.1142 5.9083-1.8646 7.8947-4.3975zm23.348 3.4448c0-0.6383-1.1842-1.8924-2.6315-2.7869-1.4474-0.8946-2.6316-0.3723-2.6316 1.1604 0 1.5328 1.1842 2.7869 2.6316 2.7869 1.4473 0 2.6315-0.5222 2.6315-1.1604zm-135.53-4.1027c-0.8945-1.4474-3.6289-2.6135-6.0764-2.5913-3.8349 0.035-3.9043 0.3929-0.5025 2.5913 5.1536 3.3305 8.6373 3.3305 6.5789 0zm-174.29-32.777c2.5044-1.8313 4.5536-5.8636 4.5536-8.9606 0-4.4753-1.4852-5.5574-7.2369-5.2726-6.2048 0.3073-6.3925 0.521-1.3158 1.4988 6.965 1.3415 7.7971 7.3578 1.5048 10.879-3.2892 1.8407-4.5799 6.7433-5.0573 19.21l-0.641 16.738 1.8195-15.382c1.1745-9.9293 3.4335-16.562 6.3731-18.711zm-40.725 20.556c-0.7669-3.6179-1.4286-2.9562-2.5516 2.5516-0.9791 4.8021-0.6123 6.5325 1.0354 4.8848 1.4034-1.4034 2.0857-4.7498 1.5162-7.4364zm372.25-3.6693c3.9802-3.3616 7.1617-8.5629 7.07-11.558-0.1663-5.4293-0.174-5.429-2.4123 0.1111-1.2351 3.0567-5.0087 7.8012-8.3858 10.544-3.3772 2.7423-7.8963 7.3466-10.042 10.232-3.7339 5.0199-3.6772 5.0637 1.3158 1.015 2.8698-2.327 8.4744-6.9814 12.455-10.343zm-380.15-26.889 22.913-0.8755-24.342-0.5411-24.342-0.5412 0.5229 20.395 0.5229 20.395 0.9061-18.978 0.9062-18.978zm64.269 29.655c-1.8326-12.486 1.5511-20.85 10.688-26.421 4.6651-2.8444 6.9107-5.1761 4.9901-5.1815-1.9205-0.01-6.9534 3.4517-11.184 7.6825-5.8791 5.879-7.6923 10.118-7.6923 17.982 0 8.473 1.517 13.799 3.9302 13.799 0.2318 0-0.098-3.5374-0.7323-7.861zm-103.94-12.498c-0.6049-4.0002-1.1159-1.352-1.1357 5.8848-0.018 7.2369 0.4751 10.51 1.0998 7.2731 0.6246-3.2367 0.6408-9.1578 0.036-13.158h1e-4zm150.74 6.9982c0-8.3493-1.706-12.435-7.6923-18.421-4.2308-4.2308-9.8558-7.646-12.5-7.5894-3.0613 0.065-1.7763 1.4217 3.5377 3.7333 10.046 4.3699 14.023 11.069 14.023 23.622 0 5.161 0.5921 9.3835 1.3158 9.3835s1.3158-4.8279 1.3158-10.729zm69.802 2.1305c4.0753-1.0331 3.7013-1.3834-1.7324-1.6228-5.1263-0.2258-7.3182 1.2358-8.4217 5.6158-1.2965 5.1457-1.0697 5.3582 1.7323 1.6228 1.7733-2.364 5.5631-4.8911 8.4218-5.6158zm-33.778-6.5333c-0.662-2.5329-1.2035-0.4606-1.2035 4.6052s0.5415 7.1382 1.2035 4.6053c0.6619-2.5329 0.6619-6.6776 0-9.2105zm58.869-22.551c4.1125-0.9322 3.952-1.1033-0.7743-0.8257-5.5268 0.3246-5.9745 1.597-6.1414 17.455l-0.18 17.105 0.9543-16.28c0.7982-13.618 1.8024-16.472 6.1413-17.455zm98.121 31.761c-0.6709-1.0855-3.5184-1.9737-6.3277-1.9737s-5.1078 0.8882-5.1078 1.9737 2.8474 1.9737 6.3276 1.9737 5.7788-0.8882 5.1079-1.9737zm-275.1-14.4c-4.7201-9.8786-13.406-10.897-17.44-2.0438-4.7002 10.316-3.6083 14.411 1.2271 4.6019 6.2716-12.722 12.572-11.192 15.402 3.7419 0.5015 2.6459 1.1398 5.9949 1.4184 7.4423s1.0418 0.5923 1.6959-1.9002c0.6542-2.4925-0.3825-7.8214-2.3036-11.842zm133.84 0.8628c0-4.7467-0.125-4.7511-3.5088-0.1237-1.9298 2.6393-3.5087 6.4332-3.5087 8.431 0 3.027 0.5847 3.0475 3.5087 0.1237 1.9299-1.9298 3.5088-5.7237 3.5088-8.4309zm179.02-0.8862c-0.6672-2.5605-1.257-1.1027-1.3106 3.2394-0.054 4.3421 0.4923 6.437 1.2131 4.6553 0.7209-1.7816 0.7647-5.3343 0.098-7.8947h-2e-4zm13.158 0c-0.6672-2.5605-1.257-1.1027-1.3106 3.2394-0.054 4.3421 0.4923 6.437 1.2131 4.6553 0.7209-1.7816 0.7647-5.3343 0.098-7.8947h-2e-4zm-426.34-1.2014c-0.84-2.0993-1.4636-1.4757-1.5899 1.5899-0.1142 2.7741 0.5077 4.3284 1.3822 3.454 0.8745-0.8745 0.9679-3.1442 0.2076-5.0439zm321.27-4.2232 5.9593-9.7571-7.4948 8.5862-7.4947 8.5862-9.5184-9.2441c-5.235-5.0842-11.649-9.169-14.254-9.0772-3.4639 0.1221-2.9689 0.869 1.8432 2.7817 3.6185 1.4382 9.7688 6.0999 13.668 10.36 3.8987 4.2595 8.0434 7.6944 9.2105 7.6332 1.1671-0.061 4.8037-4.5021 8.0814-9.8684zm48.77 8.1389c-3.1881-0.6183-6.4905-3.3106-7.3387-5.9829-0.8482-2.6724-3.362-6.3692-5.5862-8.2151-2.5495-2.1159-1.9294 0.2279 1.6776 6.3413 3.9764 6.7395 7.4485 9.5883 11.383 9.3392 5.6444-0.3573 5.644-0.3617-0.1356-1.4825zm-139.31-14.154c4.5437-2.7707 6.9408-5.042 5.3268-5.0474-4.4179-0.016-16.832 10.456-16.594 13.997 0.1321 1.9696 0.7176 1.8213 1.607-0.4068 0.7696-1.9279 5.1169-5.7721 9.6607-8.5427zm162.16-2.4257c9.854 0 15.873 1.184 16.723 3.2895 0.7751 1.9209 1.4138 1.3234 1.5351-1.436 0.1834-4.1729-1.8697-4.6345-17.555-3.9474-16.906 0.7406-17.775 1.0955-18.017 7.3571-0.221 5.7243-0.1129 5.8098 0.8327 0.6579 0.9803-5.3418 2.5928-5.9211 16.482-5.9211zm-146.01 2.8149c0-3.478-1.5099-6.6296-3.3553-7.0035s-2.1414-0.078-0.6579 0.6579c4.4101 2.1871 3.0644 10.931-1.9079 12.397-3.5791 1.0551-3.4325 1.2367 0.6579 0.8148 3.6524-0.3767 5.2632-2.4782 5.2632-6.8664zm90.077-4.4048c-0.8745-0.8744-3.1443-0.9679-5.0439-0.2076-2.0993 0.84-1.4757 1.4636 1.5899 1.5899 2.7741 0.1142 4.3284-0.5077 3.454-1.3822zm13.158 0c-0.8745-0.8744-3.1443-0.9679-5.0439-0.2076-2.0993 0.84-1.4758 1.4636 1.5899 1.5899 2.7741 0.1142 4.3284-0.5077 3.454-1.3822zm-136.19-110.09c74.832-66.58 417.82-375.2 467.92-421.03l37.596-34.393-19.175-1.6297c-10.546-0.89634-40.088-1.7845-65.649-1.9737l-46.474-0.34394-13.811 10.917c-7.5959 6.0042-29.314 25.84-48.263 44.079-65.594 63.138-159.71 143.6-165.64 141.62-2.2315-0.74371-3.1935-59.752-3.6908-226.39l-0.6725-225.38-29.591-24.554c-35.995-29.869-64.675-51.875-67.607-51.875-1.1965 0-2.8667 5.0329-3.7115 11.184s-2.1864 124.87-2.9814 263.82c-0.795 138.95-2.1483 279.04-3.0075 311.32-1.3955 52.428-2.0217 58.6-5.87 57.862-3.8638-0.7411-4.4735-10.998-5.9139-99.478-0.8832-54.258-1.8546-163.19-2.1586-242.07-0.304-78.882-1.4-145.57-2.4356-148.2-1.5963-4.0485-7.4769-0.0979-38.631 25.952-20.211 16.9-87.021 75.299-148.47 129.78-139.65 123.82-168.24 148.23-171.34 146.31-1.3564-0.83829-2.4661-0.27005-2.4661 1.2627s-1.2322 2.7869-2.7381 2.7869c-4.1866 0-18.335-11.148-18.162-14.311 0.084-1.537 87.713-78.584 194.73-171.22l194.58-168.42-0.1808-50c-0.099-27.5-1.0508-52.213-2.114-54.919-2.2552-5.7381-7.4008-1.7591-79.276 61.303-88.804 77.915-396.26 355.06-431.57 389.03l-17.119 16.467 14.474 13.618c65.558 61.685 354.71 322.43 382.81 345.21l15.704 12.727 2.0441-7.5065c1.1242-4.1286 2.1216-36.52 2.2163-71.98l0.1724-64.474-24.447-22.368c-13.446-12.303-47.585-44.276-75.866-71.053-28.281-26.776-57.021-53.741-63.868-59.923-6.847-6.1811-12.449-12.3-12.449-13.596 0-1.2969-1.3659-2.8134-3.0352-3.3698-6.6159-2.2053 9.7612-18.622 98.415-98.654 59.034-53.293 93.091-82.29 95.545-81.348 3.2667 1.2536 3.8128 22.848 3.816 150.89 0.01 202.73 2.6747 351.02 6.2791 348.79 1.5402-0.9518 29.474-25.463 62.074-54.469z" fill="#ff9a02" fill-opacity=".95686" stroke="#ff9a02" stroke-dasharray="6.33421053, 6.33421053" stroke-linecap="square" stroke-linejoin="bevel" stroke-opacity=".97647" stroke-width="6.3342"/>
<text x="435.15778" y="804.27838" fill="#000000" font-family="sans-serif" letter-spacing="0px" stroke-width="1px" word-spacing="0px" style="line-height:0%" xml:space="preserve"><tspan x="435.15778" y="804.27838" fill="#f9fcf9" font-family="sans-serif" font-size="56.25px" font-weight="bold" letter-spacing="2px" style="line-height:1.25">CNY AUTO GROUP</tspan></text>
</g>
</g>
<g fill="#f2f2f2">
<path d="m983.6 211.89v543.92l-36.083 18.756v-543.92z" stroke-opacity="0"/>
<path d="m390.49 44.651 39.436-18.425 555.87 188.07-39.436 18.425z" stroke="#000" stroke-opacity=".0093897" stroke-width=".96916px"/>
</g>
</svg>
