<?xml version="1.0" encoding="UTF-8"?>
<svg width="210mm" height="197mm" version="1.1" viewBox="0 0 210 197" xmlns="http://www.w3.org/2000/svg" xmlns:cc="http://creativecommons.org/ns#" xmlns:dc="http://purl.org/dc/elements/1.1/" xmlns:rdf="http://www.w3.org/1999/02/22-rdf-syntax-ns#" xmlns:xlink="http://www.w3.org/1999/xlink">
<defs>
<linearGradient id="c" x1="76.644" x2="351.35" y1="-23.646" y2="-23.646" gradientTransform="translate(-2.0008e-6 110)" gradientUnits="userSpaceOnUse">
<stop stop-color="#0000e8" offset="0"/>
<stop stop-color="#00cde1" stop-opacity=".96078" offset="1"/>
</linearGradient>
<linearGradient id="b" x1="-.5" x2="323.39" y1="189.72" y2="189.72" gradientTransform="matrix(3.5687 .20779 -.00015778 3.5802 178.63 -952.92)" gradientUnits="userSpaceOnUse" xlink:href="#a"/>
<linearGradient id="a">
<stop stop-color="#32dcff" offset="0"/>
<stop stop-color="#b7ffff" offset="1"/>
</linearGradient>
<linearGradient id="f" x1="324.14" x2="366.51" y1="159.76" y2="159.76" gradientTransform="translate(-2.0008e-6 110)" gradientUnits="userSpaceOnUse" xlink:href="#a"/>
<linearGradient id="d" x1="100.1" x2="115.73" y1="194.33" y2="194.33" gradientTransform="translate(-1.9933e-6 110)" gradientUnits="userSpaceOnUse">
<stop stop-color="#32dcff" offset="0"/>
<stop stop-color="#43ffff" offset="1"/>
</linearGradient>
<linearGradient id="e" x1="105.58" x2="384.76" y1="32.754" y2="32.754" gradientTransform="translate(-2.0008e-6 110)" gradientUnits="userSpaceOnUse" xlink:href="#a"/>
</defs>
<metadata>
<rdf:RDF>
<cc:Work rdf:about="">
<dc:format>image/svg+xml</dc:format>
<dc:type rdf:resource="http://purl.org/dc/dcmitype/StillImage"/>
<dc:title/>
</cc:Work>
</rdf:RDF>
</metadata>
<g transform="translate(0,-100)">
<g transform="matrix(1 0 0 1.0416 -.22704 -5.7331)" fill="#f2f2f2" opacity=".397" stroke="#000" stroke-opacity=".028169">
<path d="m5.8208 232.9 100.01-50.457v-75.939l-100.01 39.608z" stroke-width=".26717px"/>
<path d="m105.83 106.5 100.54 50.804v76.461l-100.54-39.881z" stroke-width=".2688px"/>
</g>
<g transform="translate(-.75621 2.2824)">
<path d="m5.2886 233.6 101.07-50.537 101.07 50.537-101.07 50.537z" fill="#ccc" stroke-opacity="0"/>
<path d="m5.6588 233.42v5.9238l100.7 50.352v-5.9238z" fill="#808080" fill-opacity=".81569" stroke="#fff" stroke-opacity=".62911" stroke-width=".29619px"/>
<path d="m106.36 283.77 100.7-50.352v5.9238l-100.7 50.352z" fill="#808080" fill-opacity=".81569" stroke="#fff" stroke-opacity=".62745" stroke-width=".29619px"/>
</g>
</g>
<g>
<path d="m68.396 134.03 13.906-6.7365 0.66983 0.37553-14.016 6.8522z" fill="#0000e8" fill-opacity=".91373" stroke="#fff" stroke-width=".020706px"/>
<g transform="matrix(.42532 .017836 -.015111 .44666 98.83 17.91)" fill="#fff" stroke="#000">
<g transform="matrix(.53054 .039446 -.0052814 -.55859 -60.795 264.42)" stroke-opacity=".075117">
<path d="m0 0v193.44l322.88 186v-193.44z" fill="#fff" stroke="#000" stroke-opacity=".075117"/>
</g>
<g transform="translate(6.5794 -38.367)" stroke-opacity=".8216">
<g transform="matrix(.13747 -.057088 -.010545 -.020855 -46.778 203)">
<path d="m0 0v193.44l322.88 186v-193.44z" fill="#fff" stroke="#000" stroke-opacity=".8216"/>
</g>
<g transform="matrix(.13747 -.057088 -.010545 -.020855 -11.4 198.04)">
<path d="m0 0v193.44l322.88 186v-193.44z" fill="#fff" stroke="#000" stroke-opacity=".8216"/>
</g>
<g transform="matrix(.13747 -.057088 -.010545 -.020855 38.962 170.96)">
<path d="m0 0v193.44l322.88 186v-193.44z" fill="#fff" stroke="#000" stroke-opacity=".8216"/>
</g>
</g>
<g transform="translate(-6.8947 -18.04)" stroke-opacity=".8216">
<g transform="matrix(.13747 -.057088 -.010545 -.020855 -46.778 203)">
<path d="m0 0v193.44l322.88 186v-193.44z" fill="#fff" stroke="#000" stroke-opacity=".8216"/>
</g>
<g transform="matrix(.13747 -.057088 -.010545 -.020855 -11.4 198.04)">
<path d="m0 0v193.44l322.88 186v-193.44z" fill="#fff" stroke="#000" stroke-opacity=".8216"/>
</g>
<g transform="matrix(.13747 -.057088 -.010545 -.020855 38.962 170.96)">
<path d="m0 0v193.44l322.88 186v-193.44z" fill="#fff" stroke="#000" stroke-opacity=".8216"/>
</g>
</g>
<g transform="matrix(-.91838 -.047216 .053537 -1.0413 19.138 377.93)" stroke-opacity=".8216">
<g transform="matrix(.13747 -.057088 -.010545 -.020855 -46.778 203)">
<path d="m0 0v193.44l322.88 186v-193.44z" fill="#fff" stroke="#000" stroke-opacity=".8216"/>
</g>
<g transform="matrix(.13747 -.057088 -.010545 -.020855 -11.4 198.04)">
<path d="m0 0v193.44l322.88 186v-193.44z" fill="#fff" stroke="#000" stroke-opacity=".8216"/>
</g>
<g transform="matrix(.13747 -.057088 -.010545 -.020855 38.962 170.96)">
<path d="m0 0v193.44l322.88 186v-193.44z" fill="#fff" stroke="#000" stroke-opacity=".8216"/>
</g>
</g>
</g>
<path d="m77.051 151.26-3.1519-2.5783 1.4946-49.442 2.8765 3.1068z" fill="url(#d)"/>
<g transform="matrix(.43224 .018046 -.015369 .4525 102.91 -3.6407)" fill="#0000e8" fill-opacity=".34742" stroke="#000" stroke-opacity=".8216">
<g transform="matrix(.13747 -.057088 -.010545 -.020855 -46.778 203)">
<path d="m0 0v193.44l322.88 186v-193.44z" fill="#0000e8" fill-opacity=".34742" stroke="#000" stroke-opacity=".8216"/>
</g>
<g transform="matrix(.13747 -.057088 -.010545 -.020855 -11.4 198.04)">
<path d="m0 0v193.44l322.88 186v-193.44z" fill="#0000e8" fill-opacity=".34742" stroke="#000" stroke-opacity=".8216"/>
</g>
<g transform="matrix(.13747 -.057088 -.010545 -.020855 38.962 170.96)">
<path d="m0 0v193.44l322.88 186v-193.44z" fill="#0000e8" fill-opacity=".34742" stroke="#000" stroke-opacity=".8216"/>
</g>
</g>
<g transform="matrix(.43224 .018046 -.015369 .4525 96.776 5.3139)" fill="#0000e8" fill-opacity=".37559" stroke="#000" stroke-opacity=".8216">
<g transform="matrix(.13747 -.057088 -.010545 -.020855 -46.778 203)">
<path d="m0 0v193.44l322.88 186v-193.44z" fill="#0000e8" fill-opacity=".37559" stroke="#000" stroke-opacity=".8216"/>
</g>
<g transform="matrix(.13747 -.057088 -.010545 -.020855 -11.4 198.04)">
<path d="m0 0v193.44l322.88 186v-193.44z" fill="#0000e8" fill-opacity=".37559" stroke="#000" stroke-opacity=".8216"/>
</g>
<g transform="matrix(.13747 -.057088 -.010545 -.020855 38.962 170.96)">
<path d="m0 0v193.44l322.88 186v-193.44z" fill="#0000e8" fill-opacity=".37559" stroke="#000" stroke-opacity=".8216"/>
</g>
</g>
<g transform="matrix(.22871 .027424 .0063022 -.25286 76.522 151.26)" fill="url(#b)" stroke="#000" stroke-opacity=".075117">
<path d="m0 0v193.44l322.88 186v-193.44z" fill="url(#b)" stroke="#000" stroke-opacity=".075117"/>
</g>
<path d="m67.344 83.561 73.23-37.263 3.4185 2.4163-73.818 37.933z" fill="url(#c)" stroke="#fff" stroke-width=".11577px"/>
<path d="m69.372 135.26-3.1519-2.5784 1.4946-49.442 2.8765 3.1068z" fill="#0000e8" fill-opacity=".91373"/>
<path d="m74.997 99.686 74.422-37.502 3.4742 2.4324-75.019 38.177z" fill="url(#e)" stroke="#fff" stroke-width=".1171px"/>
<g transform="matrix(.43224 .018046 -.015369 .4525 110.3 15.463)" fill="#fff" stroke="#000" stroke-opacity=".8216">
<g transform="matrix(.13747 -.057088 -.010545 -.020855 -46.778 203)">
<path d="m0 0v193.44l322.88 186v-193.44z" fill="#fff" stroke="#000" stroke-opacity=".8216"/>
</g>
<g transform="matrix(.13747 -.057088 -.010545 -.020855 -11.4 198.04)">
<path d="m0 0v193.44l322.88 186v-193.44z" fill="#fff" stroke="#000" stroke-opacity=".8216"/>
</g>
<g transform="matrix(.13747 -.057088 -.010545 -.020855 38.962 170.96)">
<path d="m0 0v193.44l322.88 186v-193.44z" fill="#fff" stroke="#000" stroke-opacity=".8216"/>
</g>
</g>
<g transform="matrix(.43224 .018046 -.015369 .4525 104.16 24.417)" fill="#fff" stroke="#000" stroke-opacity=".8216">
<g transform="matrix(.13747 -.057088 -.010545 -.020855 -46.778 203)">
<path d="m0 0v193.44l322.88 186v-193.44z" fill="#fff" stroke="#000" stroke-opacity=".8216"/>
</g>
<g transform="matrix(.13747 -.057088 -.010545 -.020855 -11.4 198.04)">
<path d="m0 0v193.44l322.88 186v-193.44z" fill="#fff" stroke="#000" stroke-opacity=".8216"/>
</g>
<g transform="matrix(.13747 -.057088 -.010545 -.020855 38.962 170.96)">
<path d="m0 0v193.44l322.88 186v-193.44z" fill="#fff" stroke="#000" stroke-opacity=".8216"/>
</g>
</g>
<g transform="matrix(-.39623 -.037939 .039145 -.47023 109.33 204.07)" fill="#fff" stroke="#000" stroke-opacity=".8216">
<g transform="matrix(.13747 -.057088 -.010545 -.020855 -46.778 203)">
<path d="m0 0v193.44l322.88 186v-193.44z" fill="#fff" stroke="#000" stroke-opacity=".8216"/>
</g>
<g transform="matrix(.13747 -.057088 -.010545 -.020855 -11.4 198.04)">
<path d="m0 0v193.44l322.88 186v-193.44z" fill="#fff" stroke="#000" stroke-opacity=".8216"/>
</g>
<g transform="matrix(.13747 -.057088 -.010545 -.020855 38.962 170.96)">
<path d="m0 0v193.44l322.88 186v-193.44z" fill="#fff" stroke="#000" stroke-opacity=".8216"/>
</g>
</g>
<path d="m136.19 120.94c11.658 3.5697 11.647 3.9118 11.647 3.9118l-2.3003-9.345z" fill="url(#f)" stroke-opacity="0"/>
</g>
</svg>
