<?xml version="1.0" encoding="UTF-8"?>
<svg width="1400mm" height="800mm" version="1.1" viewBox="0 0 1400 800" xmlns="http://www.w3.org/2000/svg" xmlns:cc="http://creativecommons.org/ns#" xmlns:dc="http://purl.org/dc/elements/1.1/" xmlns:rdf="http://www.w3.org/1999/02/22-rdf-syntax-ns#">
<metadata>
<rdf:RDF>
<cc:Work rdf:about="">
<dc:format>image/svg+xml</dc:format>
<dc:type rdf:resource="http://purl.org/dc/dcmitype/StillImage"/>
<dc:title/>
</cc:Work>
</rdf:RDF>
</metadata>
<g transform="translate(0,503)">
<rect x="-76.172" y="-566.28" width="1510.7" height="904.54" fill-opacity="0" opacity=".455" stroke="#cd853f" stroke-width=".26458"/>
<rect x="-76.172" y="-566.28" width="1510.7" height="904.54" fill="#53bcfd" stroke="#cd853f" stroke-width=".26458"/>
<g transform="matrix(3.9543 0 0 3.9543 270.81 -888.18)">
<path d="m31.879 112.01 9.6523-4.8261 139.96 43.435-9.6523 4.8261z" fill="#f2f2f2" stroke="#000" stroke-opacity=".0093897" stroke-width=".24131px"/>
<path d="m181.01 150.62v139.96l-9.6523 4.8261v-139.96z" fill="#f2f2f2" stroke-opacity="0"/>
<g transform="matrix(.04979 .015139 0 .04979 30.997 199.9)">
<g transform="matrix(.95797 0 0 .95797 73.596 -.68985)" stroke="#fff" stroke-linecap="square" stroke-linejoin="bevel">
<rect x="-47.242" y="-1844.6" width="2912.5" height="2935.3" fill="#52baff" opacity=".99" stroke-width="1.3255"/>
<path transform="rotate(90)" d="m-1449.8-2409.1h306.47v2014h-306.47zm1.1001 2017.2v-316.22h2155.1v316.22z" fill="#fff" opacity=".99" stroke-width=".70915"/>
<path d="m2401-1101.6v306.54h-1631.7v-306.54z" fill="#fff" opacity=".99" stroke-width=".63838"/>
<path d="m2088.9-1100.6h316.3v1684.6h-316.3z" fill="#fff" opacity=".99" stroke-width=".63838"/>
<path d="m2405.1 397.44v306.54h-1634.4v-306.54z" fill="#fff" opacity=".99" stroke-width=".63662"/>
<path d="m772.94-742.96h316.46v955.35h-316.46z" fill="#fff" opacity=".99" stroke-width=".49632"/>
<path d="m2028.2 32.462v306.62h-1257v-306.62z" fill="#fff" opacity=".99" stroke-width=".505"/>
<path d="m2027.6-742.95v306.62h-1257v-306.62z" fill="#fff" opacity=".99" stroke-width=".505"/>
</g>
</g>
</g>
</g>
</svg>
