<?xml version="1.0" encoding="UTF-8"?>
<svg width="447mm" height="407mm" version="1.1" viewBox="0 0 447 407" xmlns="http://www.w3.org/2000/svg" xmlns:cc="http://creativecommons.org/ns#" xmlns:dc="http://purl.org/dc/elements/1.1/" xmlns:rdf="http://www.w3.org/1999/02/22-rdf-syntax-ns#" xmlns:xlink="http://www.w3.org/1999/xlink">
<defs>
<linearGradient id="bo" x1="280" x2="374.3" y1="49.78" y2="49.78" gradientTransform="matrix(-.2205 -.0072411 0 .2205 376.54 -11.327)" gradientUnits="userSpaceOnUse" xlink:href="#g"/>
<linearGradient id="g" x1="280" x2="374.3" y1="49.78" y2="49.78" gradientUnits="userSpaceOnUse">
<stop stop-color="#8271ff" offset="0"/>
<stop stop-color="#e4bcff" offset="1"/>
</linearGradient>
<linearGradient id="bn" x1="300.07" x2="307.32" y1="79.22" y2="61.86" gradientTransform="matrix(-.2205 -.0072411 0 .2205 376.54 -11.327)" gradientUnits="userSpaceOnUse" xlink:href="#b"/>
<linearGradient id="b" x1="300.07" x2="307.32" y1="79.22" y2="61.86" gradientUnits="userSpaceOnUse">
<stop stop-color="#eed4ff" offset="0"/>
<stop stop-color="#fff" offset="1"/>
</linearGradient>
<linearGradient id="cq" x1="-9125.2" x2="-9120.7" y1="81.14" y2="66.09" gradientTransform="matrix(.2205 .0072411 0 .2205 2310.7 52.187)" xlink:href="#b"/>
<linearGradient id="ck" x1="330.88" x2="323.53" y1="50.18" y2="33.91" gradientTransform="matrix(-.2205 -.0072411 0 .2205 376.54 -11.327)" xlink:href="#g"/>
<radialGradient id="j" cx="322.8" cy="64.21" r="3.5" gradientTransform="matrix(-.2205 -.0072411 0 .2205 376.54 -11.327)" gradientUnits="userSpaceOnUse" xlink:href="#a"/>
<radialGradient id="a" cx="322.8" cy="64.21" r="3.5" gradientUnits="userSpaceOnUse">
<stop stop-color="#e4bcff" offset="0"/>
<stop stop-color="#8271ff" offset="1"/>
</radialGradient>
<radialGradient id="ay" cx="323.8" cy="71.21" r="3.5" gradientTransform="matrix(-.2205 -.0072411 0 .2205 376.54 -11.327)" xlink:href="#a"/>
<radialGradient id="aq" cx="318.8" cy="68.21" r="3.5" gradientTransform="matrix(-.2205 -.0072411 0 .2205 376.54 -11.327)" xlink:href="#a"/>
<radialGradient id="ap" cx="317.8" cy="61.21" r="3.5" gradientTransform="matrix(-.2205 -.0072411 0 .2205 376.54 -11.327)" xlink:href="#a"/>
<radialGradient id="ao" cx="312.8" cy="65.21" r="3.5" gradientTransform="matrix(-.2205 -.0072411 0 .2205 376.54 -11.327)" xlink:href="#a"/>
<radialGradient id="ag" cx="307.8" cy="62.21" r="3.5" gradientTransform="matrix(-.2205 -.0072411 0 .2205 376.54 -11.327)" xlink:href="#a"/>
<radialGradient id="v" cx="298.8" cy="54.21" r="3.5" gradientTransform="matrix(-.2205 -.0072411 0 .2205 376.54 -11.327)" xlink:href="#a"/>
<radialGradient id="l" cx="289.8" cy="50.21" r="3.5" gradientTransform="matrix(-.2205 -.0072411 0 .2205 376.54 -11.327)" xlink:href="#a"/>
<radialGradient id="k" cx="286.8" cy="44.21" r="3.5" gradientTransform="matrix(-.2205 -.0072411 0 .2205 376.54 -11.327)" xlink:href="#a"/>
<radialGradient id="bi" cx="282.8" cy="48.21" r="3.5" gradientTransform="matrix(-.2205 -.0072411 0 .2205 376.54 -11.327)" xlink:href="#a"/>
<radialGradient id="bh" cx="294.8" cy="48.21" r="3.5" gradientTransform="matrix(-.2205 -.0072411 0 .2205 376.54 -11.327)" xlink:href="#a"/>
<radialGradient id="bg" cx="293.8" cy="54.21" r="3.5" gradientTransform="matrix(-.2205 -.0072411 0 .2205 376.54 -11.327)" xlink:href="#a"/>
<linearGradient id="bm" x1="280" x2="327.15" y1="59.47" y2="59.47" gradientTransform="matrix(-.2205 -.0072411 0 .2205 376.54 -11.327)" gradientUnits="userSpaceOnUse" xlink:href="#c"/>
<linearGradient id="c" x1="280" x2="327.15" y1="59.47" y2="59.47" gradientUnits="userSpaceOnUse">
<stop stop-color="#fff" offset="0"/>
<stop stop-color="#eed4ff" offset="1"/>
</linearGradient>
<radialGradient id="bf" cx="328.8" cy="67.21" r="3.5" gradientTransform="matrix(-.2205 -.0072411 0 .2205 376.54 -11.327)" xlink:href="#a"/>
<radialGradient id="be" cx="333.99" cy="141.79" r="3.5" gradientTransform="matrix(-.19267 .10053 .10053 .19991 389.94 -70.025)" xlink:href="#a"/>
<radialGradient id="bd" cx="334.68" cy="132.87" r="3.5" gradientTransform="matrix(-.19267 .10053 .10053 .19991 389.03 -74.702)" xlink:href="#a"/>
<radialGradient id="bc" cx="346.8" cy="56.21" r="3.5" gradientTransform="matrix(-.2205 -.0072411 0 .2205 376.54 -11.327)" xlink:href="#a"/>
<radialGradient id="bb" cx="333.83" cy="120.69" r="3.5" gradientTransform="matrix(-.19267 .10053 .10053 .19991 386.85 -80.849)" xlink:href="#a"/>
<radialGradient id="ba" cx="334.51" cy="111.77" r="3.5" gradientTransform="matrix(-.19267 .10053 .10053 .19991 385.93 -85.539)" xlink:href="#a"/>
<radialGradient id="az" cx="337.77" cy="116.06" r="3.5" gradientTransform="matrix(-.19267 .10053 .10053 .19991 388.22 -83.794)" xlink:href="#a"/>
<radialGradient id="ax" cx="338.29" cy="103.54" r="3.5" gradientTransform="matrix(-.19267 .10053 .10053 .19991 386.7 -90.315)" xlink:href="#a"/>
<radialGradient id="aw" cx="338.29" cy="109.37" r="3.5" gradientTransform="matrix(-.19267 .10053 .10053 .19991 387.53 -87.309)" xlink:href="#a"/>
<radialGradient id="av" cx="338.11" cy="123.26" r="3.5" gradientTransform="matrix(-.19267 .10053 .10053 .19991 389.42 -80.136)" xlink:href="#a"/>
<radialGradient id="au" cx="337.94" cy="137.16" r="3.5" gradientTransform="matrix(-.19267 .10053 .10053 .19991 391.31 -72.969)" xlink:href="#a"/>
<radialGradient id="at" cx="338.46" cy="130.47" r="3.5" gradientTransform="matrix(-.19267 .10053 .10053 .19991 390.62 -76.485)" xlink:href="#a"/>
<radialGradient id="as" cx="338.28" cy="144.36" r="3.5" gradientTransform="matrix(-.19267 .10053 .10053 .19991 392.52 -69.308)" xlink:href="#a"/>
<linearGradient id="bs" x1="327.15" x2="374.3" y1="59.47" y2="59.47" gradientTransform="matrix(-.2205 -.0072411 0 .2205 376.54 -11.327)" xlink:href="#c"/>
<linearGradient id="br" x2="374.3" y1="27.22" y2="27.22" gradientTransform="matrix(-.2205 -.0072411 0 .2205 376.54 -11.327)" xlink:href="#c"/>
<linearGradient id="bq" x1="300.07" x2="307.32" y1="56.66" y2="39.3" gradientTransform="matrix(-.2205 -.0072411 0 .2205 376.54 -11.327)" xlink:href="#b"/>
<linearGradient id="bp" x1="-9125.2" x2="-9120.7" y1="58.58" y2="43.53" gradientTransform="matrix(.2205 .0072411 0 .2205 2310.7 52.187)" xlink:href="#b"/>
<radialGradient id="ar" cx="300.13" cy="61.61" r="7.22" gradientTransform="matrix(.1764 -.1403 .097022 .12471 47.169 31.551)" xlink:href="#a"/>
<linearGradient id="bl" x1="260.03" x2="259.22" y1="82.93" y2="81.56" gradientTransform="matrix(.2205 -.0072411 0 .2205 39.623 -14.006)" gradientUnits="userSpaceOnUse" xlink:href="#i"/>
<linearGradient id="i" x1="260.03" x2="259.22" y1="82.93" y2="81.56" gradientUnits="userSpaceOnUse">
<stop stop-color="#c2fbff" stop-opacity=".8" offset="0"/>
<stop stop-color="#4ad1d9" stop-opacity=".5" offset="1"/>
</linearGradient>
<linearGradient id="bk" x1="219.73" x2="215.17" y1="115.27" y2="107.55" gradientTransform="matrix(.2205 -.0072411 0 .2205 39.623 -14.006)" gradientUnits="userSpaceOnUse" xlink:href="#d"/>
<linearGradient id="d" x1="219.73" x2="215.17" y1="115.27" y2="107.55" gradientUnits="userSpaceOnUse">
<stop stop-color="#4ad1d9" stop-opacity=".5" offset="0"/>
<stop stop-color="#c2fbff" stop-opacity=".8" offset="1"/>
</linearGradient>
<linearGradient id="cu" x1="263.97" x2="259.96" y1="89.02" y2="82.24" gradientTransform="matrix(.2205 -.0072411 0 .2205 39.623 -14.006)" xlink:href="#d"/>
<linearGradient id="bj" x1="270.85" x2="278.71" y1="39.2" y2="38.93" gradientTransform="matrix(.1764 -.10722 .0088202 .24888 56.362 17.809)" gradientUnits="userSpaceOnUse" xlink:href="#f"/>
<linearGradient id="f" x1="270.85" x2="278.71" y1="39.2" y2="38.93" gradientTransform="matrix(.8 -.46 .04 1.13 75.91 146.78)" gradientUnits="userSpaceOnUse">
<stop stop-color="#8271ff" offset="0"/>
<stop stop-color="#e4bcff" stop-opacity="0" offset="1"/>
</linearGradient>
<linearGradient id="ct" x1="244.62" x2="252.47" y1="38.62" y2="38.35" gradientTransform="matrix(.2205 -.0072411 0 .2205 39.623 -14.006)" xlink:href="#f"/>
<linearGradient id="cs" x1="301.35" x2="306.06" y1="61.22" y2="57.76" gradientTransform="matrix(.2205 -.0072411 0 .2205 39.623 -14.006)" xlink:href="#a"/>
<linearGradient id="cr" x1="288.73" x2="284.17" y1="155.27" y2="147.55" gradientTransform="matrix(.2205 -.0072411 0 .2205 39.623 -14.006)" xlink:href="#d"/>
<radialGradient id="an" cx="131.4" cy="196.47" r="6.32" gradientTransform="matrix(.1764 -.1403 .097022 .12471 26.58 22.338)" xlink:href="#a"/>
<linearGradient id="ch" x1="90.03" x2="89.22" y1="218.66" y2="217.29" gradientTransform="matrix(.2205 -.0072411 0 .2205 39.623 -14.006)" xlink:href="#i"/>
<linearGradient id="cg" x1="51.73" x2="47.17" y1="250.01" y2="242.29" gradientTransform="matrix(.2205 -.0072411 0 .2205 39.623 -14.006)" xlink:href="#d"/>
<linearGradient id="cf" x1="93.97" x2="89.96" y1="224.76" y2="217.98" gradientTransform="matrix(.2205 -.0072411 0 .2205 39.623 -14.006)" xlink:href="#d"/>
<linearGradient id="ce" x1="141.93" x2="149.78" y1="141.85" y2="141.58" gradientTransform="matrix(-.17199 .11149 -.01764 -.24859 86.365 53.32)" xlink:href="#f"/>
<linearGradient id="cd" x1="115.69" x2="123.55" y1="141.27" y2="141" gradientTransform="matrix(-.17199 .11149 -.01764 -.24859 86.365 53.32)" xlink:href="#f"/>
<linearGradient id="cc" x1="132.48" x2="136.6" y1="196.13" y2="193.1" gradientTransform="matrix(.2205 -.0072411 0 .2205 39.623 -14.006)" xlink:href="#a"/>
<linearGradient id="cb" x2="94.3" y1="245.78" y2="245.78" gradientTransform="matrix(-.2205 -.0072411 0 .2205 368.71 -10.615)" xlink:href="#g"/>
<linearGradient id="ca" x1="20.07" x2="27.32" y1="275.22" y2="257.86" gradientTransform="matrix(-.2205 -.0072411 0 .2205 368.71 -10.615)" xlink:href="#b"/>
<linearGradient id="bz" x1="-8845.2" x2="-8840.7" y1="277.14" y2="262.09" gradientTransform="matrix(.2205 .0072411 0 .2205 2302.8 52.899)" xlink:href="#b"/>
<linearGradient id="by" x1="50.88" x2="43.53" y1="246.18" y2="229.91" gradientTransform="matrix(-.2205 -.0072411 0 .2205 368.71 -10.615)" xlink:href="#g"/>
<radialGradient id="am" cx="42.8" cy="260.21" r="3.5" gradientTransform="matrix(-.2205 -.0072411 0 .2205 368.71 -10.615)" xlink:href="#a"/>
<radialGradient id="al" cx="43.8" cy="267.21" r="3.5" gradientTransform="matrix(-.2205 -.0072411 0 .2205 368.71 -10.615)" xlink:href="#a"/>
<radialGradient id="ak" cx="38.8" cy="264.21" r="3.5" gradientTransform="matrix(-.2205 -.0072411 0 .2205 368.71 -10.615)" xlink:href="#a"/>
<radialGradient id="aj" cx="37.8" cy="257.21" r="3.5" gradientTransform="matrix(-.2205 -.0072411 0 .2205 368.71 -10.615)" xlink:href="#a"/>
<radialGradient id="ai" cx="32.8" cy="261.21" r="3.5" gradientTransform="matrix(-.2205 -.0072411 0 .2205 368.71 -10.615)" xlink:href="#a"/>
<radialGradient id="ah" cx="27.8" cy="258.21" r="3.5" gradientTransform="matrix(-.2205 -.0072411 0 .2205 368.71 -10.615)" xlink:href="#a"/>
<radialGradient id="af" cx="18.8" cy="250.21" r="3.5" gradientTransform="matrix(-.2205 -.0072411 0 .2205 368.71 -10.615)" xlink:href="#a"/>
<radialGradient id="ae" cx="9.8" cy="246.21" r="3.5" gradientTransform="matrix(-.2205 -.0072411 0 .2205 368.71 -10.615)" xlink:href="#a"/>
<radialGradient id="ad" cx="6.8" cy="240.21" r="3.5" gradientTransform="matrix(-.2205 -.0072411 0 .2205 368.71 -10.615)" xlink:href="#a"/>
<radialGradient id="ac" cx="2.8" cy="244.21" r="3.5" gradientTransform="matrix(-.2205 -.0072411 0 .2205 368.71 -10.615)" xlink:href="#a"/>
<radialGradient id="ab" cx="14.8" cy="244.21" r="3.5" gradientTransform="matrix(-.2205 -.0072411 0 .2205 368.71 -10.615)" xlink:href="#a"/>
<radialGradient id="aa" cx="13.8" cy="250.21" r="3.5" gradientTransform="matrix(-.2205 -.0072411 0 .2205 368.71 -10.615)" xlink:href="#a"/>
<linearGradient id="bx" x2="47.15" y1="255.47" y2="255.47" gradientTransform="matrix(-.2205 -.0072411 0 .2205 368.71 -10.615)" xlink:href="#c"/>
<radialGradient id="z" cx="48.8" cy="263.21" r="3.5" gradientTransform="matrix(-.2205 -.0072411 0 .2205 368.71 -10.615)" xlink:href="#a"/>
<radialGradient id="y" cx="357.95" cy="482.73" r="3.5" gradientTransform="matrix(-.19267 .10053 .10053 .19991 443.81 98.602)" xlink:href="#a"/>
<radialGradient id="x" cx="358.64" cy="473.81" r="3.5" gradientTransform="matrix(-.19267 .10053 .10053 .19991 442.89 93.918)" xlink:href="#a"/>
<radialGradient id="w" cx="66.8" cy="252.21" r="3.5" gradientTransform="matrix(-.2205 -.0072411 0 .2205 368.71 -10.615)" xlink:href="#a"/>
<radialGradient id="u" cx="357.78" cy="461.63" r="3.5" gradientTransform="matrix(-.19267 .10053 .10053 .19991 440.72 87.772)" xlink:href="#a"/>
<radialGradient id="t" cx="358.47" cy="452.72" r="3.5" gradientTransform="matrix(-.19267 .10053 .10053 .19991 439.8 83.083)" xlink:href="#a"/>
<radialGradient id="s" cx="361.73" cy="457" r="3.5" gradientTransform="matrix(-.19267 .10053 .10053 .19991 442.09 84.828)" xlink:href="#a"/>
<radialGradient id="r" cx="362.24" cy="444.48" r="3.5" gradientTransform="matrix(-.19267 .10053 .10053 .19991 440.57 78.306)" xlink:href="#a"/>
<radialGradient id="q" cx="362.24" cy="450.32" r="3.5" gradientTransform="matrix(-.19267 .10053 .10053 .19991 441.4 81.312)" xlink:href="#a"/>
<radialGradient id="p" cx="362.07" cy="464.21" r="3.5" gradientTransform="matrix(-.19267 .10053 .10053 .19991 443.28 88.486)" xlink:href="#a"/>
<radialGradient id="o" cx="361.9" cy="478.1" r="3.5" gradientTransform="matrix(-.19267 .10053 .10053 .19991 445.19 95.657)" xlink:href="#a"/>
<radialGradient id="n" cx="362.41" cy="471.41" r="3.5" gradientTransform="matrix(-.19267 .10053 .10053 .19991 444.5 92.141)" xlink:href="#a"/>
<radialGradient id="m" cx="362.24" cy="485.3" r="3.5" gradientTransform="matrix(-.19267 .10053 .10053 .19991 446.38 99.315)" xlink:href="#a"/>
<linearGradient id="bw" x1="47.15" x2="94.3" y1="255.47" y2="255.47" gradientTransform="matrix(-.2205 -.0072411 0 .2205 368.71 -10.615)" xlink:href="#c"/>
<linearGradient id="bv" x2="94.3" y1="223.22" y2="223.22" gradientTransform="matrix(-.2205 -.0072411 0 .2205 368.71 -10.615)" xlink:href="#c"/>
<linearGradient id="bu" x1="20.07" x2="27.32" y1="252.66" y2="235.3" gradientTransform="matrix(-.2205 -.0072411 0 .2205 368.71 -10.615)" xlink:href="#b"/>
<linearGradient id="bt" x1="-8845.2" x2="-8840.7" y1="254.58" y2="239.53" gradientTransform="matrix(.2205 .0072411 0 .2205 2302.8 52.899)" xlink:href="#b"/>
<linearGradient id="co" x1="267.52" x2="315.96" y1="109.11" y2="77.82" gradientTransform="matrix(-.24219 -.016589 0 .26807 406.68 -123.86)" xlink:href="#e"/>
<linearGradient id="e" x1="215.48" x2="7.55" y1="116.96" y2="183.29" gradientUnits="userSpaceOnUse">
<stop stop-color="#168b9c" stop-opacity=".5" offset="0"/>
<stop stop-color="#07a687" offset="1"/>
</linearGradient>
<linearGradient id="cm" x1="177.08" x2="234.4" y1="124.84" y2="-1" gradientTransform="matrix(-.24219 -.016589 0 .26807 406.68 -123.86)" xlink:href="#h"/>
<linearGradient id="h" x1="177.08" x2="234.4" y1="153.71" y2="27.88" gradientUnits="userSpaceOnUse">
<stop stop-color="#00e4ff" offset="0"/>
<stop stop-color="aqua" stop-opacity=".6" offset="1"/>
</linearGradient>
<linearGradient id="cj" x1="153.75" x2="55.79" y1="107.78" y2="139.03" gradientTransform="matrix(-.24219 -.016589 0 .26807 406.68 -123.86)" xlink:href="#e"/>
<linearGradient id="cp" x1="89.92" x2="74.88" y1="140.84" y2="126.97" gradientTransform="matrix(.10071 -.0068979 0 .11147 302.8 231.4)" gradientUnits="userSpaceOnUse">
<stop stop-color="#5340db" offset="0"/>
<stop stop-color="#e4bcff" offset="1"/>
</linearGradient>
<linearGradient id="cn" x1="267.52" x2="315.96" y1="109.11" y2="77.82" gradientTransform="matrix(-.24219 -.016589 0 .26807 411.69 -48.177)" xlink:href="#e"/>
<linearGradient id="cl" x1="177.08" x2="234.4" y1="124.84" y2="-1" gradientTransform="matrix(-.24219 -.016589 0 .26807 411.69 -48.177)" xlink:href="#h"/>
<linearGradient id="ci" x1="153.75" x2="55.79" y1="107.78" y2="139.03" gradientTransform="matrix(-.24219 -.016589 0 .26807 411.69 -48.177)" xlink:href="#e"/>
</defs>
<metadata>
<rdf:RDF>
<cc:Work rdf:about="">
<dc:format>image/svg+xml</dc:format>
<dc:type rdf:resource="http://purl.org/dc/dcmitype/StillImage"/>
<dc:title/>
</cc:Work>
</rdf:RDF>
</metadata>
<g transform="translate(0,110)">
<g transform="matrix(1.1999 .039403 0 1.1999 -47.544 -94.755)">
<polygon class="cls-1" transform="matrix(-1 0 0 1 408.33 -3.3917)" points="47.15 241 94.3 268.22 47.15 295.44 0 268.22" opacity=".1"/>
<polygon class="cls-1" transform="matrix(-1 0 0 1 416.17 -2.6794)" points="280 71.22 327.15 44 374.3 71.22 327.15 98.44" opacity=".1"/>
<polygon class="cls-2" transform="matrix(-1 0 0 1 416.17 -2.6794)" points="280 49.78 327.15 22.56 374.3 49.78 327.15 77" fill="url(#bo)"/>
<polygon class="cls-3" transform="matrix(-1 0 0 1 416.17 -2.6794)" points="280 49.78 327.15 77 327.15 91.88 280 64.66" fill="url(#bn)"/>
<polygon class="cls-4" transform="matrix(-1 0 0 1 416.17 -2.6794)" points="374.3 49.78 327.15 77 327.15 91.88 374.3 64.66" fill="url(#cq)"/>
<g class="cls-5" transform="matrix(-1 0 0 1 416.17 -2.6794)" opacity=".55">
<polygon class="cls-6" points="280 41.92 327.15 14.7 374.3 41.92 327.15 69.14" fill="url(#ck)"/>
<circle class="cls-7" cx="323.8" cy="64.13" r="3.5" fill="url(#j)"/>
<circle class="cls-8" cx="324.8" cy="71.13" r="3.5" fill="url(#ay)"/>
<circle class="cls-9" cx="319.8" cy="68.13" r="3.5" fill="url(#aq)"/>
<circle class="cls-10" cx="318.8" cy="61.13" r="3.5" fill="url(#ap)"/>
<circle class="cls-11" cx="313.8" cy="65.13" r="3.5" fill="url(#ao)"/>
<circle class="cls-12" cx="308.8" cy="62.13" r="3.5" fill="url(#ag)"/>
<circle class="cls-13" cx="299.8" cy="54.13" r="3.5" fill="url(#v)"/>
<circle class="cls-14" cx="290.8" cy="50.13" r="3.5" fill="url(#l)"/>
<circle class="cls-15" cx="287.8" cy="44.13" r="3.5" fill="url(#k)"/>
<circle class="cls-16" cx="283.8" cy="48.13" r="3.5" fill="url(#bi)"/>
<circle class="cls-17" cx="295.8" cy="48.13" r="3.5" fill="url(#bh)"/>
<circle class="cls-18" cx="294.8" cy="54.13" r="3.5" fill="url(#bg)"/>
<polygon class="cls-19" points="280 41.92 327.15 69.14 327.15 77.02 280 49.79" fill="url(#bm)" opacity=".6"/>
<circle class="cls-20" cx="329.8" cy="67.13" r="3.5" fill="url(#bf)"/>
<circle class="cls-21" transform="rotate(-30.97 335.84 63.116)" cx="335.8" cy="63.13" r="3.5" fill="url(#be)"/>
<circle class="cls-22" transform="rotate(-30.97 343.83 59.129)" cx="343.8" cy="59.13" r="3.5" fill="url(#bd)"/>
<circle class="cls-23" cx="347.8" cy="56.13" r="3.5" fill="url(#bc)"/>
<circle class="cls-24" transform="rotate(-30.97 353.83 52.126)" cx="353.8" cy="52.13" r="3.5" fill="url(#bb)"/>
<circle class="cls-25" transform="rotate(-30.97 361.84 48.126)" cx="361.8" cy="48.13" r="3.5" fill="url(#ba)"/>
<circle class="cls-26" transform="rotate(-30.97 359.83 53.128)" cx="359.8" cy="53.13" r="3.5" fill="url(#az)"/>
<circle class="cls-27" transform="rotate(-30.97 370.84 47.122)" cx="370.8" cy="47.13" r="3.5" fill="url(#ax)"/>
<circle class="cls-28" transform="rotate(-30.97 365.83 50.126)" cx="365.8" cy="50.13" r="3.5" fill="url(#aw)"/>
<circle class="cls-29" transform="rotate(-30.97 353.83 57.119)" cx="353.8" cy="57.13" r="3.5" fill="url(#av)"/>
<circle class="cls-30" transform="rotate(-30.97 341.84 64.118)" cx="341.8" cy="64.13" r="3.5" fill="url(#au)"/>
<circle class="cls-31" transform="rotate(-30.97 347.84 61.116)" cx="347.8" cy="61.13" r="3.5" fill="url(#at)"/>
<circle class="cls-32" transform="rotate(-30.97 335.84 68.128)" cx="335.8" cy="68.13" r="3.5" fill="url(#as)"/>
<polygon class="cls-33" points="327.15 77.02 374.3 49.79 374.3 41.92 327.15 69.14" fill="url(#bs)" opacity=".6"/>
</g>
<polygon class="cls-34" transform="matrix(-1 0 0 1 416.17 -2.6794)" points="280 27.22 327.15 0 374.3 27.22 327.15 54.45" fill="url(#br)"/>
<polygon class="cls-35" transform="matrix(-1 0 0 1 416.17 -2.6794)" points="280 27.22 327.15 54.45 327.15 69.32 280 42.1" fill="url(#bq)"/>
<polygon class="cls-36" transform="matrix(-1 0 0 1 416.17 -2.6794)" points="374.3 27.22 327.15 54.45 327.15 69.32 374.3 42.1" fill="url(#bp)"/>
<path class="cls-37" d="m114.35 53.601c2.17-1.25 3.94-0.25 3.95 2.25a8.64 8.64 0 0 1 -3.92 6.79c-2.17 1.25-3.93 0.25-3.94-2.25a8.64 8.64 0 0 1 3.91 -6.79z" fill="url(#ar)"/>
<path class="cls-38" d="m114.29 53.741 86.54 51.37a2 2 0 0 0 -2 0.19l-86.54-51.37a2 2 0 0 1 2 -0.19z" fill="url(#bl)"/>
<path class="cls-39" d="m198.86 105.32c1.53-0.88 2.78-0.18 2.79 1.59a6.1 6.1 0 0 1 -2.77 4.79c-1.53 0.88-2.78 0.18-2.79-1.58a6.1 6.1 0 0 1 2.77 -4.8z" fill="url(#bk)"/>
<path class="cls-40" d="m112.32 53.931 86.54 51.39a6.1 6.1 0 0 0 -2.77 4.79 1.94 1.94 0 0 0 0.81 1.78l-86.54-51.37a1.94 1.94 0 0 1 -0.81 -1.78 6.1 6.1 0 0 1 2.77 -4.81z" fill="url(#cu)"/>
<path class="cls-41" d="m114.78 58.821c0 0.66 7.14 7.7 9.47 7.18 1.56-0.35 1.46-1.37 1.43-1.73-0.2-2.07-10.88-6.11-10.9-5.45z" fill="url(#bj)" opacity=".8"/>
<path class="cls-42" d="m135.68 70.221c0 0.66 7.14 7.7 9.47 7.18 1.56-0.35 1.46-1.37 1.43-1.73-0.19-2.07-10.87-6.11-10.9-5.45z" fill="url(#ct)" opacity=".8"/>
<path class="cls-43" d="m113.23 52.951a2.77 2.77 0 0 1 2.8 -0.27l1.14 0.64a2.77 2.77 0 0 0 -2.8 0.27l-0.37-0.22 0.37 0.22a8.64 8.64 0 0 0 -3.92 6.79 2.75 2.75 0 0 0 1.15 2.52l-1.12-0.65a2.75 2.75 0 0 1 -1.15 -2.52 8.64 8.64 0 0 1 3.9 -6.78z" fill="url(#cs)"/>
<path class="cls-80" d="m129.86 145.32c1.53-0.88 2.78-0.18 2.79 1.59a6.1 6.1 0 0 1 -2.77 4.79c-1.53 0.88-2.78 0.18-2.79-1.58a6.1 6.1 0 0 1 2.77 -4.8z" fill="url(#cr)"/>
<path class="cls-98" d="m275.44 188.41c1.9-1.1 3.45-0.22 3.46 2a7.57 7.57 0 0 1 -3.44 5.95c-1.9 1.1-3.45 0.22-3.45-2a7.57 7.57 0 0 1 3.43 -5.95z" fill="url(#an)"/>
<path class="cls-99" d="m276.45 188.76 86.54 51.37a2 2 0 0 0 -2 0.19l-86.54-51.37a2 2 0 0 1 2 -0.19z" fill="url(#ch)"/>
<path class="cls-100" d="m359.02 239.33c1.53-0.88 2.78-0.18 2.79 1.59a6.1 6.1 0 0 1 -2.77 4.79c-1.53 0.88-2.78 0.18-2.79-1.58a6.1 6.1 0 0 1 2.77 -4.8z" fill="url(#cg)"/>
<path class="cls-101" d="m274.48 188.96 86.54 51.37a6.1 6.1 0 0 0 -2.77 4.79 1.94 1.94 0 0 0 0.81 1.78l-86.54-51.37a1.94 1.94 0 0 1 -0.81 -1.78 6.1 6.1 0 0 1 2.77 -4.79z" fill="url(#cf)"/>
<path class="cls-102" d="m326.08 222.74c0-0.66-6.9-7.92-9.24-7.46-1.57 0.3-1.5 1.33-1.48 1.68 0.13 2.07 10.68 6.44 10.72 5.78z" fill="url(#ce)" opacity=".8"/>
<path class="cls-103" d="m305.54 210.7c0-0.66-6.9-7.92-9.24-7.46-1.57 0.3-1.5 1.33-1.48 1.68 0.12 2.08 10.67 6.44 10.72 5.78z" fill="url(#cd)" opacity=".8"/>
<path class="cls-104" d="m274.46 187.84a2.43 2.43 0 0 1 2.45 -0.24l1 0.57a2.43 2.43 0 0 0 -2.45 0.24l-0.33-0.19 0.33 0.19a7.57 7.57 0 0 0 -3.43 5.95 2.41 2.41 0 0 0 1 2.21l-1-0.57a2.41 2.41 0 0 1 -1 -2.21 7.57 7.57 0 0 1 3.43 -5.95z" fill="url(#cc)"/>
<polygon class="cls-105" transform="matrix(-1 0 0 1 408.33 -3.3917)" points="47.15 218.56 94.3 245.78 47.15 273 0 245.78" fill="url(#cb)"/>
<polygon class="cls-106" transform="matrix(-1 0 0 1 408.33 -3.3917)" points="47.15 273 47.15 287.88 0 260.66 0 245.78" fill="url(#ca)"/>
<polygon class="cls-107" transform="matrix(-1 0 0 1 408.33 -3.3917)" points="47.15 273 47.15 287.88 94.3 260.66 94.3 245.78" fill="url(#bz)"/>
<g class="cls-5" transform="matrix(-1 0 0 1 408.33 -3.3917)" opacity=".55">
<polygon class="cls-108" points="47.15 210.7 94.3 237.92 47.15 265.14 0 237.92" fill="url(#by)"/>
<circle class="cls-109" cx="43.8" cy="260.13" r="3.5" fill="url(#am)"/>
<circle class="cls-110" cx="44.8" cy="267.13" r="3.5" fill="url(#al)"/>
<circle class="cls-111" cx="39.8" cy="264.13" r="3.5" fill="url(#ak)"/>
<circle class="cls-112" cx="38.8" cy="257.13" r="3.5" fill="url(#aj)"/>
<circle class="cls-113" cx="33.8" cy="261.13" r="3.5" fill="url(#ai)"/>
<circle class="cls-114" cx="28.8" cy="258.13" r="3.5" fill="url(#ah)"/>
<circle class="cls-115" cx="19.8" cy="250.13" r="3.5" fill="url(#af)"/>
<circle class="cls-116" cx="10.8" cy="246.13" r="3.5" fill="url(#ae)"/>
<circle class="cls-117" cx="7.8" cy="240.13" r="3.5" fill="url(#ad)"/>
<circle class="cls-118" cx="3.8" cy="244.13" r="3.5" fill="url(#ac)"/>
<circle class="cls-119" cx="15.8" cy="244.13" r="3.5" fill="url(#ab)"/>
<circle class="cls-120" cx="14.8" cy="250.13" r="3.5" fill="url(#aa)"/>
<polygon class="cls-121" points="47.15 265.14 47.15 273.02 0 245.79 0 237.92" fill="url(#bx)" opacity=".6"/>
<circle class="cls-122" cx="49.8" cy="263.13" r="3.5" fill="url(#z)"/>
<circle class="cls-123" transform="rotate(-30.97 55.82 259.15)" cx="55.8" cy="259.13" r="3.5" fill="url(#y)"/>
<circle class="cls-124" transform="rotate(-30.97 63.809 255.15)" cx="63.8" cy="255.13" r="3.5" fill="url(#x)"/>
<circle class="cls-125" cx="67.8" cy="252.13" r="3.5" fill="url(#w)"/>
<circle class="cls-126" transform="rotate(-30.97 73.813 248.15)" cx="73.8" cy="248.13" r="3.5" fill="url(#u)"/>
<circle class="cls-127" transform="rotate(-30.97 81.82 244.15)" cx="81.8" cy="244.13" r="3.5" fill="url(#t)"/>
<circle class="cls-128" transform="rotate(-30.97 79.813 249.15)" cx="79.8" cy="249.13" r="3.5" fill="url(#s)"/>
<circle class="cls-129" transform="rotate(-30.97 90.824 243.14)" cx="90.8" cy="243.13" r="3.5" fill="url(#r)"/>
<circle class="cls-130" transform="rotate(-30.97 85.814 246.15)" cx="85.8" cy="246.13" r="3.5" fill="url(#q)"/>
<circle class="cls-131" transform="rotate(-30.97 73.81 253.14)" cx="73.8" cy="253.13" r="3.5" fill="url(#p)"/>
<circle class="cls-132" transform="rotate(-30.97 61.819 260.16)" cx="61.8" cy="260.13" r="3.5" fill="url(#o)"/>
<circle class="cls-133" transform="rotate(-30.97 67.82 257.15)" cx="67.8" cy="257.13" r="3.5" fill="url(#n)"/>
<circle class="cls-134" transform="rotate(-30.97 55.816 264.15)" cx="55.8" cy="264.13" r="3.5" fill="url(#m)"/>
<polygon class="cls-135" points="94.3 245.79 94.3 237.92 47.15 265.14 47.15 273.02" fill="url(#bw)" opacity=".6"/>
</g>
<polygon class="cls-136" transform="matrix(-1 0 0 1 408.33 -3.3917)" points="47.15 196 94.3 223.22 47.15 250.44 0 223.22" fill="url(#bv)"/>
<polygon class="cls-137" transform="matrix(-1 0 0 1 408.33 -3.3917)" points="47.15 250.44 47.15 265.32 0 238.1 0 223.22" fill="url(#bu)"/>
<polygon class="cls-138" transform="matrix(-1 0 0 1 408.33 -3.3917)" points="47.15 250.44 47.15 265.32 94.3 238.1 94.3 223.22" fill="url(#bt)"/>
<g transform="matrix(1.9483 .090702 0 1.9483 7.8412 -298.29)">
<g class="cls-85" transform="matrix(-.46732 .0081833 0 .42221 206.36 194.12)" style="isolation:isolate">
<path class="cls-86" d="m84.85 80.78v-7.52c0 2.53 1.67 5.07 5 7v7.52c-3.33-1.93-5.01-4.47-5-7z" fill="none"/>
<path class="cls-95" d="m315.93 75.12c0 0.06 0 0.12-0.05 0.18a7 7 0 0 1 -0.8 1.57l-0.19 0.28a9.6 9.6 0 0 1 -1.34 1.48 13.47 13.47 0 0 1 -1.2 0.88c-0.35 0.25-0.65 0.51-1 0.74l-98.42 57.19v7.52l98.42-57.19 0.21-0.12c0.33-0.2 0.56-0.42 0.85-0.63a13.3 13.3 0 0 0 1.18 -0.87l0.11-0.08a9.78 9.78 0 0 0 1 -1.13c0.07-0.09 0.12-0.18 0.18-0.27l0.19-0.28c0.1-0.15 0.22-0.31 0.31-0.46a6.86 6.86 0 0 0 0.45 -1v-0.15c0-0.05 0-0.12 0.05-0.18a6.38 6.38 0 0 0 0.18 -0.62 5.77 5.77 0 0 0 0.11 -1v-0.15-7.52a5.87 5.87 0 0 1 -0.24 1.81z" fill="url(#co)"/>
<g class="cls-92" opacity=".85" style="mix-blend-mode:hard-light">
<path class="cls-96" d="m311.2 66.37-99-57.18c-6.64-3.83-17.36-3.85-24 0l-98.41 57.19c-6.6 3.84-6.54 10 0.1 13.88l99 57.18c6.64 3.83 17.36 3.85 24 0l98.42-57.19c6.6-3.83 6.54-10.04-0.11-13.88z" fill="url(#cm)"/>
</g>
<path class="cls-97" d="m209.56 138.91c-0.42 0.14-0.85 0.27-1.28 0.39s-1.11 0.3-1.69 0.42-1.38 0.27-2.08 0.36l-0.48 0.07c-0.94 0.1-1.9 0.15-2.86 0.16h-0.45c-0.94 0-1.88-0.06-2.81-0.16h-0.43a26.9 26.9 0 0 1 -2.72 -0.47l-0.49-0.12a23.16 23.16 0 0 1 -2.35 -0.72l-0.42-0.14a18.53 18.53 0 0 1 -2.58 -1.22l-99-57.18c-3.35-1.93-5-4.47-5-7v7.52c0 2.53 1.67 5.07 5 7l99 57.18a18.54 18.54 0 0 0 2.45 1.18h0.13l0.41 0.14c0.5 0.18 1 0.36 1.52 0.51 0.27 0.08 0.56 0.14 0.83 0.2l0.49 0.12 0.45 0.11q0.83 0.17 1.68 0.29l0.59 0.07h0.42l0.64 0.07q0.83 0.07 1.67 0.09h1.73q0.94 0 1.88-0.12h0.2l0.47-0.07c0.5-0.06 1-0.12 1.48-0.21 0.21 0 0.4-0.11 0.61-0.15 0.58-0.12 1.13-0.26 1.69-0.42 0.3-0.08 0.61-0.13 0.91-0.23 0.14 0 0.24-0.12 0.38-0.17a19 19 0 0 0 3.33 -1.46v-7.52a19 19 0 0 1 -3.32 1.48z" fill="url(#cj)"/>
</g>
<g transform="matrix(1.1239 -.01968 0 1.0154 -324 -83.84)" stroke-width=".40609">
<path class="cls-86" d="m435.96 307.79v-3.0538c0 1.0274-0.67817 2.0589-2.0305 2.8427v3.0538c1.3523-0.78376 2.0345-1.8152 2.0305-2.8426z" fill="none" style="isolation:isolate"/>
<path class="cls-89" d="m344.04 301.95 40.203-23.22c2.6965-1.5553 7.0498-1.5635 9.7462 0l39.964 23.22c2.6802 1.5594 2.6558 4.0609-0.0406 5.6366l-40.203 23.22c-2.6965 1.5553-7.0498 1.5635-9.7462 0l-39.968-23.22c-2.6802-1.5553-2.6558-4.0609 0.0447-5.6366z" fill="#f0f" fill-opacity=".68235" style="isolation:isolate"/>
<path class="cls-90" d="m435.96 304.74v3.0538c0 1.0274-0.67818 2.0589-2.0305 2.8426v-3.0538c1.3523-0.78376 2.0305-1.8152 2.0305-2.8427z" fill="url(#cp)" style="isolation:isolate"/>
<path class="cls-91" d="m342.12 305.5c0 0.0244 0 0.0487 0.0203 0.0731a2.8427 2.8427 0 0 0 0.32488 0.63757l0.0771 0.11371a3.9066 3.9066 0 0 0 0.54417 0.60102 5.466 5.466 0 0 0 0.48731 0.35736c0.14213 0.10152 0.26396 0.20711 0.4061 0.30051l39.984 23.229a7.7158 7.7158 0 0 0 1.3523 0.59289c0.17056 0.0569 0.34518 0.10965 0.5198 0.15838 0.17462 0.0487 0.45076 0.12183 0.68629 0.17056 0.23554 0.0487 0.56041 0.10965 0.84468 0.14619l0.19492 0.0284c0.38173 0.0406 0.77158 0.0609 1.1614 0.065h0.18274c0.38173 0 0.76346-0.0244 1.1411-0.065h0.17462a10.916 10.916 0 0 0 1.1046 -0.19086l0.19899-0.0487a9.3726 9.3726 0 0 0 0.95432 -0.29239l0.17056-0.0569a7.5452 7.5452 0 0 0 1.0477 -0.49543l40.215-23.237v3.0538l-40.203 23.22a7.5005 7.5005 0 0 1 -0.99493 0.47919h-0.0528l-0.1665 0.0568c-0.20305 0.0731-0.40609 0.1462-0.61726 0.20711-0.10965 0.0325-0.22741 0.0568-0.33706 0.0812l-0.19899 0.0487-0.18274 0.0447q-0.33705 0.069-0.68223 0.11777l-0.2396 0.0284h-0.17056l-0.2599 0.0284q-0.33706 0.0284-0.67817 0.0366h-0.70255q-0.38172 0-0.76345-0.0487h-0.0812l-0.19493-0.0284c-0.20304-0.0244-0.40609-0.0487-0.60101-0.0853-0.0853 0-0.16244-0.0447-0.24772-0.0609-0.23554-0.0487-0.45889-0.10559-0.6863-0.17056-0.12183-0.0325-0.24772-0.0528-0.36954-0.0934-0.0569 0-0.0975-0.0487-0.15432-0.069a7.7158 7.7158 0 0 1 -1.3523 -0.59289l-39.968-23.224-0.0853-0.0487c-0.13401-0.0812-0.22741-0.17056-0.34518-0.25584a5.3807 5.3807 0 0 1 -0.47919 -0.35331l-0.0447-0.0325a3.9716 3.9716 0 0 1 -0.40609 -0.45889c-0.0284-0.0365-0.0487-0.0731-0.0731-0.10964l-0.0772-0.11371c-0.0406-0.0609-0.0893-0.12589-0.12589-0.1868a2.7858 2.7858 0 0 1 -0.18274 -0.4061v-0.0609c0-0.0203 0-0.0487-0.0203-0.0731a2.5949 2.5949 0 0 1 -0.0731 -0.25178 2.3391 2.3391 0 0 1 -0.0447 -0.40609v-0.0609-3.0538a2.3838 2.3838 0 0 0 0.069 0.75534z" fill="#be00ff" fill-opacity=".68235" style="isolation:isolate"/>
</g>
<g class="cls-85" transform="matrix(-.45904 .0080383 0 .41473 204.95 163.79)" fill="#fffeff" style="isolation:isolate">
<path class="cls-86" d="m84.85 109.65v-7.52c0 2.53 1.67 5.07 5 7v7.52c-3.33-1.93-5.01-4.47-5-7z"/>
<g class="cls-92" opacity=".85" style="mix-blend-mode:hard-light">
<path class="cls-93" d="m311.2 95.25-99-57.18c-6.64-3.83-17.36-3.85-24 0l-98.41 57.18c-6.6 3.84-6.54 10 0.1 13.88l99 57.18c6.64 3.83 17.36 3.85 24 0l98.42-57.19c6.6-3.83 6.54-10.04-0.11-13.87z" fill="#fffeff"/>
</g>
<path class="cls-94" d="m315.93 104c0 0.06 0 0.12-0.05 0.18a6.94 6.94 0 0 1 -0.8 1.57l-0.19 0.28a9.65 9.65 0 0 1 -1.34 1.48 13.48 13.48 0 0 1 -1.2 0.88c-0.35 0.25-0.64 0.51-1 0.74l-98.42 57.19a19 19 0 0 1 -3.33 1.46c-0.42 0.14-0.85 0.27-1.28 0.39s-1.11 0.3-1.69 0.42-1.38 0.27-2.08 0.36l-0.55 0.05c-0.94 0.1-1.9 0.15-2.86 0.16h-0.45c-0.94 0-1.88-0.06-2.81-0.16h-0.43a26.9 26.9 0 0 1 -2.72 -0.47l-0.49-0.12a23.16 23.16 0 0 1 -2.35 -0.72l-0.42-0.14a18.53 18.53 0 0 1 -2.58 -1.22l-99-57.18c-3.35-1.93-5-4.47-5-7v7.52c0 2.53 1.67 5.07 5 7l99 57.18a18.54 18.54 0 0 0 2.45 1.18h0.13l0.41 0.14c0.5 0.18 1 0.36 1.52 0.51 0.27 0.08 0.56 0.14 0.83 0.2l0.49 0.12 0.45 0.11q0.83 0.17 1.68 0.29l0.59 0.07h0.42l0.64 0.07q0.83 0.07 1.67 0.09h1.73q0.94 0 1.88-0.12h0.2l0.47-0.07c0.5-0.06 1-0.12 1.48-0.21 0.21 0 0.4-0.11 0.61-0.15 0.58-0.12 1.13-0.26 1.69-0.42 0.3-0.08 0.61-0.13 0.91-0.23 0.14 0 0.24-0.12 0.38-0.17a19 19 0 0 0 3.33 -1.46l98.42-57.19 0.21-0.12c0.33-0.2 0.56-0.42 0.85-0.63a13.17 13.17 0 0 0 1.18 -0.87l0.11-0.08a9.86 9.86 0 0 0 1 -1.13c0.07-0.09 0.12-0.18 0.18-0.27l0.19-0.28c0.1-0.15 0.22-0.31 0.31-0.46a6.87 6.87 0 0 0 0.45 -1v-0.15c0-0.05 0-0.12 0.05-0.18a6.37 6.37 0 0 0 0.18 -0.62 5.77 5.77 0 0 0 0.11 -1v-0.15-7.52a5.87 5.87 0 0 1 -0.16 1.85z"/>
</g>
<g class="cls-85" transform="matrix(-.46732 .0081833 0 .42221 208.7 162.13)" style="isolation:isolate">
<path class="cls-86" d="m84.85 80.78v-7.52c0 2.53 1.67 5.07 5 7v7.52c-3.33-1.93-5.01-4.47-5-7z" fill="none"/>
<path class="cls-95" d="m315.93 75.12c0 0.06 0 0.12-0.05 0.18a7 7 0 0 1 -0.8 1.57l-0.19 0.28a9.6 9.6 0 0 1 -1.34 1.48 13.47 13.47 0 0 1 -1.2 0.88c-0.35 0.25-0.65 0.51-1 0.74l-98.42 57.19v7.52l98.42-57.19 0.21-0.12c0.33-0.2 0.56-0.42 0.85-0.63a13.3 13.3 0 0 0 1.18 -0.87l0.11-0.08a9.78 9.78 0 0 0 1 -1.13c0.07-0.09 0.12-0.18 0.18-0.27l0.19-0.28c0.1-0.15 0.22-0.31 0.31-0.46a6.86 6.86 0 0 0 0.45 -1v-0.15c0-0.05 0-0.12 0.05-0.18a6.38 6.38 0 0 0 0.18 -0.62 5.77 5.77 0 0 0 0.11 -1v-0.15-7.52a5.87 5.87 0 0 1 -0.24 1.81z" fill="url(#cn)"/>
<g class="cls-92" opacity=".85" style="mix-blend-mode:hard-light">
<path class="cls-96" d="m311.2 66.37-99-57.18c-6.64-3.83-17.36-3.85-24 0l-98.41 57.19c-6.6 3.84-6.54 10 0.1 13.88l99 57.18c6.64 3.83 17.36 3.85 24 0l98.42-57.19c6.6-3.83 6.54-10.04-0.11-13.88z" fill="url(#cl)"/>
</g>
<path class="cls-97" d="m209.56 138.91c-0.42 0.14-0.85 0.27-1.28 0.39s-1.11 0.3-1.69 0.42-1.38 0.27-2.08 0.36l-0.48 0.07c-0.94 0.1-1.9 0.15-2.86 0.16h-0.45c-0.94 0-1.88-0.06-2.81-0.16h-0.43a26.9 26.9 0 0 1 -2.72 -0.47l-0.49-0.12a23.16 23.16 0 0 1 -2.35 -0.72l-0.42-0.14a18.53 18.53 0 0 1 -2.58 -1.22l-99-57.18c-3.35-1.93-5-4.47-5-7v7.52c0 2.53 1.67 5.07 5 7l99 57.18a18.54 18.54 0 0 0 2.45 1.18h0.13l0.41 0.14c0.5 0.18 1 0.36 1.52 0.51 0.27 0.08 0.56 0.14 0.83 0.2l0.49 0.12 0.45 0.11q0.83 0.17 1.68 0.29l0.59 0.07h0.42l0.64 0.07q0.83 0.07 1.67 0.09h1.73q0.94 0 1.88-0.12h0.2l0.47-0.07c0.5-0.06 1-0.12 1.48-0.21 0.21 0 0.4-0.11 0.61-0.15 0.58-0.12 1.13-0.26 1.69-0.42 0.3-0.08 0.61-0.13 0.91-0.23 0.14 0 0.24-0.12 0.38-0.17a19 19 0 0 0 3.33 -1.46v-7.52a19 19 0 0 1 -3.32 1.48z" fill="url(#ci)"/>
</g>
</g>
</g>
</g>
</svg>
