<?xml version="1.0" encoding="UTF-8"?>
<svg width="215mm" height="190mm" version="1.1" viewBox="0 0 215 190" xmlns="http://www.w3.org/2000/svg" xmlns:cc="http://creativecommons.org/ns#" xmlns:dc="http://purl.org/dc/elements/1.1/" xmlns:rdf="http://www.w3.org/1999/02/22-rdf-syntax-ns#">
<defs>
<clipPath id="g">
<path d="m298.54 412.83h53.446v-125.79h-53.446z"/>
</clipPath>
<clipPath id="f">
<path d="m305.12 441.97h101.68v-127.71h-101.68z"/>
</clipPath>
<clipPath id="e">
<path d="m147.66 531.25h43.166v-268.35h-43.166z"/>
</clipPath>
<clipPath id="d">
<path d="m209.41 671.62h276.88v-303.02h-276.88z"/>
</clipPath>
<clipPath id="c">
<path d="m356.34 634.62h1.046v-1.208h-1.046z"/>
</clipPath>
<clipPath id="b">
<path d="m44.706 661.16h45.293v-101.05h-45.293z"/>
</clipPath>
<clipPath id="a">
<path d="m101.91 642.91h69.261v-80.342h-69.261z"/>
</clipPath>
</defs>
<metadata>
<rdf:RDF>
<cc:Work rdf:about="">
<dc:format>image/svg+xml</dc:format>
<dc:type rdf:resource="http://purl.org/dc/dcmitype/StillImage"/>
<dc:title/>
</cc:Work>
</rdf:RDF>
</metadata>
<g transform="translate(0,-107)">
<path d="m6.8035 238.57 101.07-50.537 101.07 50.537-101.07 50.537z" fill="#30bcfd" stroke-opacity="0"/>
<path d="m7.1737 238.39v5.9238l100.7 50.352v-5.9238z" fill="#3095fd" stroke="#fff" stroke-opacity=".62911" stroke-width=".29619px"/>
<path d="m107.88 288.74 100.7-50.352v5.9238l-100.7 50.352z" fill="#3095fd" stroke="#fff" stroke-opacity=".62745" stroke-width=".29619px"/>
<g transform="matrix(1.2024 0 0 1.2024 -5.1803 -36.269)">
<g transform="matrix(.20641 .015347 -.0020548 -.21733 112.59 228.77)" stroke="#000" stroke-opacity=".8216">
<path d="m0 0c-4.987 2.877-7.747 9.75-6.131 15.276l16.474 56.37c1.617 5.527-1.143 7.696-6.13 4.821l-70.799-40.814c-4.989-2.877-10.391-9.752-12.006-15.278l-16.476-56.369c-1.616-5.526 1.144-12.401 6.132-15.276l39.284-22.645c4.987-2.875 13.148-2.875 18.137 0l70.799 40.813c2.502 1.443 3.746 3.344 3.739 5.245v7.173z" fill="#a9acad" stroke="#000" stroke-opacity=".8216"/>
</g>
<g transform="matrix(.20641 .015347 -.0020548 -.21733 31.999 301.63)" stroke="#000" stroke-opacity=".8216">
<g stroke="#000" stroke-opacity=".8216">
<g clip-path="url(#g)" stroke="#000" stroke-opacity=".8216">
<g transform="translate(327.48 398.71)" stroke="#000" stroke-opacity=".8216">
<path d="m0 0c-4.988-2.877-10.391-9.752-12.006-15.278l-16.475-56.369c-1.616-5.526 1.143-12.401 6.131-15.276l39.284-22.645c2.113-1.22 4.798-1.916 7.568-2.101v125.79z" fill="#a4a9ad" stroke="#000" stroke-opacity=".8216"/>
</g>
</g>
</g>
</g>
<g transform="matrix(.20641 .015347 -.0020548 -.21733 113.7 211.99)" stroke="#000" stroke-opacity=".8216">
<path d="m0 0c4.988 2.875 7.748 0.706 6.131-4.822l-15.249-52.178c-1.615-5.525 1.144-12.4 6.132-15.275l36.136-20.83c4.988-2.878 4.987-7.581-3e-3 -10.453l-70.808-40.77c-4.99-2.873-13.153-2.871-18.14 6e-3l-32.695 18.848c-4.988 2.875-7.744 9.748-6.125 15.273l16.684 56.921c1.62 5.527 7.025 12.4 12.015 15.275z" fill="#c3c6c8" stroke="#000" stroke-opacity=".8216"/>
</g>
<g transform="matrix(.20641 .015347 -.0020548 -.21733 31.999 301.63)" stroke="#000" stroke-opacity=".8216">
<g stroke="#000" stroke-opacity=".8216">
<g clip-path="url(#f)" stroke="#000" stroke-opacity=".8216">
<g transform="translate(406.34 435.88)" stroke="#000" stroke-opacity=".8216">
<path d="m0 0c1.616 5.528-1.144 7.697-6.131 4.822l-65.923-38.006c-4.989-2.875-10.394-9.748-12.014-15.274l-16.685-56.921c-1.619-5.525 1.138-12.398 6.126-15.273l1.679-0.969 88.896 51.247-5.065 2.921c-4.988 2.875-7.747 9.75-6.132 15.275z" fill="#a4a9ad" stroke="#000" stroke-opacity=".8216"/>
</g>
</g>
</g>
</g>
<g transform="matrix(.20641 .015347 -.0020548 -.21733 135.29 147.82)" fill="#fff" stroke="#000" stroke-opacity=".8216">
<path d="m0 0c-2.487 1.769-6.365 1.603-10.736-0.917l-335.8-193.44c-7.511-4.33-13.6-13.928-13.6-21.439v-249.12c0-3.2 1.114-5.495 2.965-6.752l-7e-3 -8e-3 0.073-0.041c0.106-0.07 0.22-0.128 0.331-0.191l15.142-8.744 18.264 23.335 312.64 180.09c7.512 4.331 13.598 13.927 13.598 21.437v231.11l12.414 15.861z" fill="#fff" stroke="#000" stroke-opacity=".8216"/>
</g>
<g transform="matrix(.20641 .015347 -.0020548 -.21733 31.999 301.63)" stroke="#000" stroke-opacity=".8216">
<g stroke="#000" stroke-opacity=".8216">
<g clip-path="url(#e)" stroke="#000" stroke-opacity=".8216">
<g transform="translate(148.07 531.25)" stroke="#000" stroke-opacity=".8216">
<path d="m0 0c-0.258-1.195-0.41-2.371-0.41-3.497v-249.12c0-3.2 1.114-5.495 2.965-6.753l-7e-3 -8e-3 0.072-0.04c0.107-0.07 0.22-0.129 0.331-0.191l15.143-8.744 18.263 23.335 6.398 3.687v216.64z" fill="#c3c6c8" stroke="#000" stroke-opacity=".8216"/>
</g>
</g>
</g>
</g>
<g transform="matrix(.20641 .015347 -.0020548 -.21733 136.35 150.09)" fill="#fff" stroke="#000" stroke-opacity=".8216">
<path d="m0 0-335.8-193.45c-7.511-4.33-13.599-13.928-13.599-21.438v-219.96l363 209.12v219.96c0 7.511-6.086 10.09-13.599 5.76" fill="#fff" stroke="#000" stroke-opacity=".8216"/>
</g>
<g transform="matrix(.20641 .015347 -.0020548 -.21733 68.672 233.81)" fill="#0ff" stroke="#000" stroke-opacity=".8216">
<path d="m0 0v193.44l322.88 186v-193.44z" fill="#0ff" stroke="#000" stroke-opacity=".8216"/>
</g>
<g transform="matrix(.17232 .012812 -.0017154 -.18143 44.067 285.94)" fill="#fff" stroke="#000" stroke-opacity=".8216">
<g fill="#fff" stroke="#000" stroke-opacity=".8216">
<g clip-path="url(#d)" fill="#fff" stroke="#000" stroke-opacity=".8216">
<g transform="translate(218.06 400.77)">
<path d="m0 0c-4.756-2.762-8.648-9.522-8.648-15.022v-10.975c0-5.5 3.897-7.75 8.661-5l259.56 149.85c4.763 2.75 8.66 9.5 8.66 15v11.909c0 5.5-3.892 7.74-8.647 4.978z" fill="#fff" stroke="#000" stroke-opacity=".8216"/>
</g>
<g transform="translate(258.96 450.24)">
<path d="m0 0c0-1.91-1.354-4.257-3.01-5.212l-42.478-24.525c-1.654-0.954-3.01-0.174-3.01 1.738v29.598c0 1.911 1.356 4.256 3.01 5.213l42.478 24.523c1.656 0.956 3.01 0.174 3.01-1.737z" fill="#fff" stroke="#000" stroke-opacity=".8216"/>
</g>
<g transform="translate(315.03 482.88)">
<path d="m0 0c0-1.91-1.354-4.257-3.01-5.212l-42.478-24.525c-1.654-0.954-3.01-0.174-3.01 1.738v29.598c0 1.911 1.356 4.256 3.01 5.212l42.478 24.524c1.656 0.955 3.01 0.174 3.01-1.737z" fill="#fff" stroke="#000" stroke-opacity=".8216"/>
</g>
<g transform="translate(371.1 515.52)">
<path d="m0 0c0-1.91-1.354-4.257-3.01-5.212l-42.478-24.525c-1.655-0.954-3.01-0.174-3.01 1.738v29.598c0 1.911 1.355 4.256 3.01 5.212l42.478 24.525c1.656 0.954 3.01 0.173 3.01-1.738z" fill="#fff" stroke="#000" stroke-opacity=".8216"/>
</g>
<g transform="translate(427.17 548.16)">
<path d="m0 0c0-1.91-1.354-4.257-3.01-5.212l-42.478-24.525c-1.654-0.954-3.009-0.174-3.009 1.738v29.598c0 1.911 1.355 4.257 3.009 5.213l42.478 24.524c1.656 0.955 3.01 0.173 3.01-1.738z" fill="#fff" stroke="#000" stroke-opacity=".8216"/>
</g>
<g transform="translate(483.25 580.8)">
<path d="m0 0c0-1.91-1.353-4.257-3.01-5.212l-42.477-24.525c-1.655-0.954-3.01-0.174-3.01 1.738v29.598c0 1.911 1.355 4.257 3.01 5.213l42.477 24.523c1.657 0.956 3.01 0.174 3.01-1.737z" fill="#fff" stroke="#000" stroke-opacity=".8216"/>
</g>
<g transform="translate(216.25 523.08)">
<path d="m0 0c-1.842-1.07-3.35-3.689-3.35-5.82v-37.132c0-2.13 1.51-3.002 3.355-1.937l100.55 58.054c1.845 1.065 3.355 3.68 3.355 5.811v37.494c0 2.131-1.508 2.998-3.351 1.928z" fill="#fff" stroke="#000" stroke-opacity=".8216"/>
</g>
<g transform="translate(415.44 635.97)">
<path d="m0 0c-1.116-0.648-2.028-2.234-2.028-3.525v-35.618c0-1.29 0.913-1.819 2.031-1.173l60.906 35.164c1.117 0.645 2.032 2.229 2.032 3.52v35.837c0 1.29-0.913 1.816-2.028 1.168z" fill="#fff" stroke="#000" stroke-opacity=".8216"/>
</g>
<g transform="translate(337.36 590.46)">
<path d="m0 0c-1.116-0.648-2.029-2.234-2.029-3.524v-35.619c0-1.291 0.914-1.819 2.031-1.173l60.907 35.164c1.118 0.645 2.032 2.229 2.032 3.52v35.837c0 1.291-0.913 1.816-2.028 1.168z" fill="#fff" stroke="#000" stroke-opacity=".8216"/>
</g>
</g>
</g>
</g>
<g transform="matrix(.20641 .015347 -.0020548 -.21733 65.181 245.57)" fill="#ececec" stroke="#000" stroke-opacity=".8216">
<path d="m0 0c0-7.511 6.088-10.087 13.6-5.758l335.8 193.44c7.513 4.331 13.599 13.927 13.599 21.437v29.153l-363-209.12z" fill="#ececec" stroke="#000" stroke-opacity=".8216"/>
</g>
<g transform="matrix(.20641 .015347 -.0020548 -.21733 105.94 222.03)" stroke="#000" stroke-opacity=".8216">
<path d="m0 0c0-3.205-2.595-7.298-5.801-9.146-3.203-1.845-5.8-0.746-5.8 2.457s2.597 7.297 5.8 9.145c3.206 1.848 5.801 0.746 5.801-2.456" fill="#1e252b" stroke="#000" stroke-opacity=".8216"/>
</g>
<g transform="matrix(.20641 .015347 -.0020548 -.21733 104.57 169.31)" stroke="#000" stroke-opacity=".8216">
<path d="m0 0c0 0.865-0.703 1.162-1.567 0.664-0.867-0.499-1.568-1.605-1.568-2.471s0.701-1.163 1.568-0.664c0.864 0.499 1.567 1.605 1.567 2.471" fill="#333e48" stroke="#000" stroke-opacity=".8216"/>
</g>
<g transform="matrix(.20641 .015347 -.0020548 -.21733 104.52 169.34)" stroke="#000" stroke-opacity=".8216">
<path d="m0 0c0 0.711-0.578 0.956-1.289 0.546-0.71-0.41-1.289-1.321-1.289-2.032s0.579-0.955 1.289-0.545c0.711 0.409 1.289 1.32 1.289 2.031" fill="#1e252b" stroke="#000" stroke-opacity=".8216"/>
</g>
<g transform="matrix(.20641 .015347 -.0020548 -.21733 104.45 169.38)" stroke="#000" stroke-opacity=".8216">
<path d="m0 0c0 0.53-0.43 0.711-0.958 0.406-0.53-0.305-0.96-0.981-0.96-1.511s0.43-0.711 0.96-0.406c0.528 0.305 0.958 0.982 0.958 1.511" fill="#003764" stroke="#000" stroke-opacity=".8216"/>
</g>
<g transform="matrix(.20641 .015347 -.0020548 -.21733 104.39 169.41)" stroke="#000" stroke-opacity=".8216">
<path d="m0 0c0 0.365-0.296 0.49-0.661 0.281-0.365-0.211-0.662-0.679-0.662-1.044s0.297-0.49 0.662-0.28 0.661 0.678 0.661 1.043" fill="#1e252b" stroke="#000" stroke-opacity=".8216"/>
</g>
<g transform="matrix(.20641 .015347 -.0020548 -.21733 31.999 301.63)" stroke="#000" stroke-opacity=".8216">
<g stroke="#000" stroke-opacity=".8216">
<g clip-path="url(#c)" opacity=".39999" stroke="#000" stroke-opacity=".8216">
<g transform="translate(357.39 634.32)" stroke="#000" stroke-opacity=".8216">
<path d="m0 0c0 0.289-0.234 0.388-0.523 0.222-0.289-0.168-0.523-0.536-0.523-0.825s0.234-0.389 0.523-0.221c0.289 0.166 0.523 0.534 0.523 0.824" fill="#fff" stroke="#000" stroke-opacity=".8216"/>
</g>
</g>
</g>
</g>
<g transform="matrix(.20641 .015347 -.0020548 -.21733 71.152 141.84)" stroke="#000" stroke-opacity=".8216">
<path d="m0 0c-0.092 0.059-0.191 0.106-0.287 0.162l-0.372 0.213-0.01-0.013c-3.056 1.552-7.414 1.134-12.252-1.657l-122.83-71.072c-9.178-5.298-16.687-17.139-16.687-26.317v-73.575c0-4.615 1.899-7.704 4.951-8.973l13.499-7.792 18.173 21.221 102.89 59.56c9.18 5.298 16.687 17.14 16.687 26.32v63.179l9.554 11.158z" fill="#fff" stroke="#000" stroke-opacity=".8216"/>
</g>
<g transform="matrix(.20641 .015347 -.0020548 -.21733 31.999 301.63)" stroke="#000" stroke-opacity=".8216">
<g stroke="#000" stroke-opacity=".8216">
<g clip-path="url(#b)" stroke="#000" stroke-opacity=".8216">
<g transform="translate(47.452 661.16)" stroke="#000" stroke-opacity=".8216">
<path d="m0 0c-1.729-3.627-2.745-7.348-2.745-10.711v-73.575c0-4.615 1.899-7.704 4.951-8.973l13.499-7.793 18.173 21.221 8.67 5.027v50.237z" fill="#a4a9ad" stroke="#000" stroke-opacity=".8216"/>
</g>
</g>
</g>
</g>
<g transform="matrix(.20641 .015347 -.0020548 -.21733 63.224 164.41)" stroke="#000" stroke-opacity=".8216">
<path d="m0 0-3e-3 -9e-3c-0.938 0.705-2.604 0.509-4.849-0.786l-45.198-26.095c-4.85-2.8-7.044-7.617-4.875-10.703l23.53-33.475c0.346-0.494 0.731-0.841 1.137-1.078l-4e-3 -9e-3 13.498-7.793 30.263 72.155z" fill="#fff" stroke="#000" stroke-opacity=".8216"/>
</g>
<g transform="matrix(.20641 .015347 -.0020548 -.21733 31.999 301.63)" stroke="#000" stroke-opacity=".8216">
<g stroke="#000" stroke-opacity=".8216">
<g clip-path="url(#a)" stroke="#000" stroke-opacity=".8216">
<g transform="translate(157.67 642.51)" stroke="#000" stroke-opacity=".8216">
<path d="m0 0-3e-3 -9e-3c-0.938 0.705-2.604 0.509-4.849-0.786l-45.198-26.095c-4.85-2.8-7.044-7.617-4.875-10.703l23.53-33.475c0.346-0.494 0.731-0.841 1.137-1.078l-4e-3 -9e-3 13.498-7.793 30.263 72.155z" fill="#a4a9ad" stroke="#000" stroke-opacity=".8216"/>
</g>
</g>
</g>
</g>
<g transform="matrix(.20641 .015347 -.0020548 -.21733 71.435 143.9)" fill="#fff" stroke="#000" stroke-opacity=".8216">
<path d="m0 0-122.83-71.069c-9.177-5.297-16.684-17.139-16.684-26.319v-73.574c0-9.18 7.507-12.352 16.684-7.055l46.568 26.946 17.616-25.062c2.17-3.086 5.719-1.037 7.888 4.554l17.644 45.474 33.113 19.16c9.178 5.297 16.686 17.14 16.686 26.317v73.577c0 9.176-7.508 12.348-16.686 7.051" fill="#fff" stroke="#000" stroke-opacity=".8216"/>
</g>
<g transform="matrix(.20641 .015347 -.0020548 -.21733 49.709 163.43)" stroke="#000" stroke-opacity=".8216">
<path d="m0 0 85.157 49.163" fill="none" stroke="#000" stroke-linecap="round" stroke-linejoin="round" stroke-miterlimit="10" stroke-opacity=".8216" stroke-width="4"/>
</g>
<g transform="matrix(.20641 .015347 -.0020548 -.21733 49.742 166.88)" stroke="#000" stroke-opacity=".8216">
<path d="m0 0 94.535 54.577" fill="none" stroke="#000" stroke-linecap="round" stroke-linejoin="round" stroke-miterlimit="10" stroke-opacity=".8216" stroke-width="4"/>
</g>
<g transform="matrix(.20641 .015347 -.0020548 -.21733 49.774 170.33)" stroke="#000" stroke-opacity=".8216">
<path d="m0 0 72.902 42.091" fill="none" stroke="#000" stroke-linecap="round" stroke-linejoin="round" stroke-miterlimit="10" stroke-opacity=".8216" stroke-width="4"/>
</g>
<path d="m81.341 221.84l12.246-22.832 12.246 2.7428 6.1232-14.613 12.246 2.7427" fill-opacity="0" stroke="#ff0" stroke-width=".15643px"/>
</g>
</g>
</svg>
