<?xml version="1.0" encoding="UTF-8"?>
<svg width="1400mm" height="800mm" version="1.1" viewBox="0 0 1400 800" xmlns="http://www.w3.org/2000/svg" xmlns:cc="http://creativecommons.org/ns#" xmlns:dc="http://purl.org/dc/elements/1.1/" xmlns:rdf="http://www.w3.org/1999/02/22-rdf-syntax-ns#">
<metadata>
<rdf:RDF>
<cc:Work rdf:about="">
<dc:format>image/svg+xml</dc:format>
<dc:type rdf:resource="http://purl.org/dc/dcmitype/StillImage"/>
<dc:title/>
</cc:Work>
</rdf:RDF>
</metadata>
<g transform="translate(0,503)" stroke="#cd853f" stroke-width=".26458">
<rect x="-76.172" y="-566.28" width="1510.7" height="904.54" fill-opacity="0" opacity=".455"/>
<rect x="-76.172" y="-566.28" width="1510.7" height="904.54" fill="#e20049"/>
</g>
<g>
<g transform="matrix(2.275 0 0 2.2566 1257.2 160.66)">
<rect transform="matrix(.95953 .28159 0 1 0 0)" x="-394.75" y="68.416" width="256.88" height="246.48" fill="#fff" fill-opacity=".99216" stroke="#000" stroke-opacity=".10698" stroke-width=".2701"/>
<g transform="matrix(.27095 .079517 0 .27095 -342.2 50.981)" stroke="#7c0649">
<rect transform="rotate(-90)" x="-156.75" y="622.3" width="9.3292" height="24.64" fill="#4d4d4d" stroke-opacity=".040179" stroke-width=".14491"/>
<text transform="scale(.96646 1.0347)" x="180.61668" y="190.41599" fill="#e20049" font-family="Batang" font-size="44.329px" letter-spacing="0px" stroke-opacity="0" stroke-width="1.1082" word-spacing="0px" style="line-height:1.25" xml:space="preserve"><tspan x="180.61668" y="190.41599" fill="#e20049" font-family="Batang" font-size="212.78px" letter-spacing="-9.0752px" stroke="#7c0649" stroke-opacity="0" stroke-width="1.1082">V&amp;B</tspan></text>
<text transform="scale(1.0687 .93575)" x="191.61661" y="278.51187" fill="#4d4d4d" font-family="Batang" font-size="16.756px" letter-spacing="0px" stroke-opacity=".040179" stroke-width=".41891" word-spacing="0px" style="line-height:1.25" xml:space="preserve"><tspan x="191.61661" y="278.51187" fill="#4d4d4d" font-family="Batang" font-size="80.43px" stroke="#7c0649" stroke-opacity=".040179" stroke-width=".41891">entals.com</tspan></text>
<text transform="scale(.96933 1.0316)" x="-27.923563" y="261.25607" fill="#e20049" font-family="Batang" font-size="73.062px" letter-spacing="0px" stroke-opacity="0" stroke-width="1.8265" word-spacing="0px" style="line-height:1.25" xml:space="preserve"><tspan x="-27.923563" y="261.25607" fill="#e20049" font-family="Batang" font-size="350.7px" stroke="#7c0649" stroke-opacity="0" stroke-width="1.8265">R</tspan></text>
<rect x="572.86" y="-25.675" width="10.236" height="60.501" fill="#4d4d4d" stroke-opacity=".040179" stroke-width=".23785"/>
<rect transform="matrix(-.87528 .48361 -.47929 -.87765 0 0)" x="-525.4" y="-435.09" width="11.037" height="180.31" fill="#4d4d4d" stroke-opacity=".040179" stroke-width=".42638"/>
<rect transform="rotate(-90)" x="-132.58" y="636.08" width="9.3003" height="36.096" fill="#4d4d4d" stroke-opacity=".040179" stroke-width=".17512"/>
</g>
</g>
<path d="m394.17 64.208 38.391-18.812 556.67 169.31-38.391 18.812z" fill="#f2f2f2"/>
<path d="m987.64 212.59v552.49l-32.473 19.051v-552.49z" fill="#f2f2f2" stroke-opacity="0"/>
</g>
</svg>
