<?xml version="1.0" encoding="UTF-8"?>
<svg width="440mm" height="407mm" version="1.1" viewBox="0 0 440 407" xmlns="http://www.w3.org/2000/svg" xmlns:cc="http://creativecommons.org/ns#" xmlns:dc="http://purl.org/dc/elements/1.1/" xmlns:rdf="http://www.w3.org/1999/02/22-rdf-syntax-ns#" xmlns:xlink="http://www.w3.org/1999/xlink">
<defs>
<linearGradient id="a">
<stop stop-color="#32dcff" offset="0"/>
<stop stop-color="#b7ffff" offset="1"/>
</linearGradient>
<linearGradient id="b" x1="-.5" x2="323.38" y1="189.72" y2="189.72" gradientUnits="userSpaceOnUse" xlink:href="#a"/>
<linearGradient id="f" x1="324.14" x2="366.51" y1="159.76" y2="159.76" gradientUnits="userSpaceOnUse" xlink:href="#a"/>
<linearGradient id="e" x1="105.58" x2="384.76" y1="32.754" y2="32.754" gradientUnits="userSpaceOnUse" xlink:href="#a"/>
<linearGradient id="d" x1="100.1" x2="115.73" y1="194.33" y2="194.33" gradientUnits="userSpaceOnUse">
<stop stop-color="#32dcff" offset="0"/>
<stop stop-color="#43ffff" offset="1"/>
</linearGradient>
<linearGradient id="c" x1="76.644" x2="351.35" y1="-23.646" y2="-23.646" gradientUnits="userSpaceOnUse">
<stop stop-color="#0000e8" offset="0"/>
<stop stop-color="#00cde1" stop-opacity=".96078" offset="1"/>
</linearGradient>
</defs>
<metadata>
<rdf:RDF>
<cc:Work rdf:about="">
<dc:format>image/svg+xml</dc:format>
<dc:type rdf:resource="http://purl.org/dc/dcmitype/StillImage"/>
<dc:title/>
</cc:Work>
</rdf:RDF>
</metadata>
<g transform="translate(0,110)">
<path d="m82.324 227.41 49.705-27.284 2.3943 1.188-50.098 27.722z" fill="#0000e8" fill-opacity=".91373" stroke="#fff" stroke-width=".074012px"/>
<g transform="matrix(1.5203 -.034248 -.054013 1.6 191.11 -194.68)" fill="#fff" stroke="#000">
<g transform="matrix(.53054 .039446 -.0052814 -.55859 -60.795 264.42)" stroke-opacity=".075117">
<path d="m0 0v193.44l322.88 186v-193.44z" fill="#fff" stroke="#000" stroke-opacity=".075117"/>
</g>
<g transform="translate(6.5794 -38.367)" stroke-opacity=".8216">
<g transform="matrix(.13747 -.057088 -.010545 -.020855 -46.778 203)">
<path d="m0 0v193.44l322.88 186v-193.44z" fill="#fff" stroke="#000" stroke-opacity=".8216"/>
</g>
<g transform="matrix(.13747 -.057088 -.010545 -.020855 -11.4 198.04)">
<path d="m0 0v193.44l322.88 186v-193.44z" fill="#fff" stroke="#000" stroke-opacity=".8216"/>
</g>
<g transform="matrix(.13747 -.057088 -.010545 -.020855 38.962 170.96)">
<path d="m0 0v193.44l322.88 186v-193.44z" fill="#fff" stroke="#000" stroke-opacity=".8216"/>
</g>
</g>
<g transform="translate(-6.8947 -18.04)" stroke-opacity=".8216">
<g transform="matrix(.13747 -.057088 -.010545 -.020855 -46.778 203)">
<path d="m0 0v193.44l322.88 186v-193.44z" fill="#fff" stroke="#000" stroke-opacity=".8216"/>
</g>
<g transform="matrix(.13747 -.057088 -.010545 -.020855 -11.4 198.04)">
<path d="m0 0v193.44l322.88 186v-193.44z" fill="#fff" stroke="#000" stroke-opacity=".8216"/>
</g>
<g transform="matrix(.13747 -.057088 -.010545 -.020855 38.962 170.96)">
<path d="m0 0v193.44l322.88 186v-193.44z" fill="#fff" stroke="#000" stroke-opacity=".8216"/>
</g>
</g>
<g transform="matrix(-.91838 -.047216 .053537 -1.0413 19.138 377.93)" stroke-opacity=".8216">
<g transform="matrix(.13747 -.057088 -.010545 -.020855 -46.778 203)">
<path d="m0 0v193.44l322.88 186v-193.44z" fill="#fff" stroke="#000" stroke-opacity=".8216"/>
</g>
<g transform="matrix(.13747 -.057088 -.010545 -.020855 -11.4 198.04)">
<path d="m0 0v193.44l322.88 186v-193.44z" fill="#fff" stroke="#000" stroke-opacity=".8216"/>
</g>
<g transform="matrix(.13747 -.057088 -.010545 -.020855 38.962 170.96)">
<path d="m0 0v193.44l322.88 186v-193.44z" fill="#fff" stroke="#000" stroke-opacity=".8216"/>
</g>
</g>
</g>
<g transform="matrix(1.545 -.03509 -.054936 1.621 205.7 -272.65)" fill="#0000e8" fill-opacity=".34742" stroke="#000" stroke-opacity=".8216">
<g transform="matrix(.13747 -.057088 -.010545 -.020855 -46.778 203)">
<path d="m0 0v193.44l322.88 186v-193.44z" fill="#0000e8" fill-opacity=".34742" stroke="#000" stroke-opacity=".8216"/>
</g>
<g transform="matrix(.13747 -.057088 -.010545 -.020855 -11.4 198.04)">
<path d="m0 0v193.44l322.88 186v-193.44z" fill="#0000e8" fill-opacity=".34742" stroke="#000" stroke-opacity=".8216"/>
</g>
<g transform="matrix(.13747 -.057088 -.010545 -.020855 38.962 170.96)">
<path d="m0 0v193.44l322.88 186v-193.44z" fill="#0000e8" fill-opacity=".34742" stroke="#000" stroke-opacity=".8216"/>
</g>
</g>
<g transform="matrix(1.545 -.03509 -.054936 1.621 183.77 -239.23)" fill="#0000e8" fill-opacity=".37559" stroke="#000" stroke-opacity=".8216">
<g transform="matrix(.13747 -.057088 -.010545 -.020855 -46.778 203)">
<path d="m0 0v193.44l322.88 186v-193.44z" fill="#0000e8" fill-opacity=".37559" stroke="#000" stroke-opacity=".8216"/>
</g>
<g transform="matrix(.13747 -.057088 -.010545 -.020855 -11.4 198.04)">
<path d="m0 0v193.44l322.88 186v-193.44z" fill="#0000e8" fill-opacity=".37559" stroke="#000" stroke-opacity=".8216"/>
</g>
<g transform="matrix(.13747 -.057088 -.010545 -.020855 38.962 170.96)">
<path d="m0 0v193.44l322.88 186v-193.44z" fill="#0000e8" fill-opacity=".37559" stroke="#000" stroke-opacity=".8216"/>
</g>
</g>
<path d="m78.566 47.248 261.76-150.07 12.219 7.8493-263.86 152.6z" fill="url(#c)" stroke="#fff" stroke-width=".41383px"/>
<path d="m85.815 231.58-11.266-8.4899 5.3423-177.07 10.282 10.442z" fill="#0000e8" fill-opacity=".91373"/>
<g transform="matrix(.81752 .045325 .022527 -.90529 111.37 287.11)" fill="url(#b)" stroke="#000" stroke-opacity=".075117">
<path d="m0 0v193.44l322.88 186v-193.44z" fill="url(#b)" stroke="#000" stroke-opacity=".075117"/>
</g>
<g transform="matrix(1.545 -.03509 -.054936 1.621 232.1 -206.07)" fill="#fff" stroke="#000" stroke-opacity=".8216">
<g transform="matrix(.13747 -.057088 -.010545 -.020855 -46.778 203)">
<path d="m0 0v193.44l322.88 186v-193.44z" fill="#fff" stroke="#000" stroke-opacity=".8216"/>
</g>
<g transform="matrix(.13747 -.057088 -.010545 -.020855 -11.4 198.04)">
<path d="m0 0v193.44l322.88 186v-193.44z" fill="#fff" stroke="#000" stroke-opacity=".8216"/>
</g>
<g transform="matrix(.13747 -.057088 -.010545 -.020855 38.962 170.96)">
<path d="m0 0v193.44l322.88 186v-193.44z" fill="#fff" stroke="#000" stroke-opacity=".8216"/>
</g>
</g>
<g transform="matrix(1.545 -.03509 -.054936 1.621 210.16 -172.64)" fill="#fff" stroke="#000" stroke-opacity=".8216">
<g transform="matrix(.13747 -.057088 -.010545 -.020855 -46.778 203)">
<path d="m0 0v193.44l322.88 186v-193.44z" fill="#fff" stroke="#000" stroke-opacity=".8216"/>
</g>
<g transform="matrix(.13747 -.057088 -.010545 -.020855 -11.4 198.04)">
<path d="m0 0v193.44l322.88 186v-193.44z" fill="#fff" stroke="#000" stroke-opacity=".8216"/>
</g>
<g transform="matrix(.13747 -.057088 -.010545 -.020855 38.962 170.96)">
<path d="m0 0v193.44l322.88 186v-193.44z" fill="#fff" stroke="#000" stroke-opacity=".8216"/>
</g>
</g>
<g transform="matrix(-1.4163 -.044312 .13992 -1.6899 228.63 468.31)" fill="#fff" stroke="#000" stroke-opacity=".8216">
<g transform="matrix(.13747 -.057088 -.010545 -.020855 -46.778 203)">
<path d="m0 0v193.44l322.88 186v-193.44z" fill="#fff" stroke="#000" stroke-opacity=".8216"/>
</g>
<g transform="matrix(.13747 -.057088 -.010545 -.020855 -11.4 198.04)">
<path d="m0 0v193.44l322.88 186v-193.44z" fill="#fff" stroke="#000" stroke-opacity=".8216"/>
</g>
<g transform="matrix(.13747 -.057088 -.010545 -.020855 38.962 170.96)">
<path d="m0 0v193.44l322.88 186v-193.44z" fill="#fff" stroke="#000" stroke-opacity=".8216"/>
</g>
</g>
<path d="m324.67 165c41.673 10.074 41.631 11.299 41.631 11.299l-8.2224-32.873z" fill="url(#f)" stroke-opacity="0"/>
<path d="m111.37 287.11-11.266-8.4899 5.3423-177.07 10.282 10.442z" fill="url(#d)"/>
<path d="m105.92 103.12 266.02-151.2 12.418 7.8941-268.15 153.75z" fill="url(#e)" stroke="#fff" stroke-width=".41855px"/>
</g>
</svg>
