<?xml version="1.0" encoding="UTF-8"?>
<svg width="215mm" height="197mm" version="1.1" viewBox="0 0 215 197" xmlns="http://www.w3.org/2000/svg" xmlns:cc="http://creativecommons.org/ns#" xmlns:dc="http://purl.org/dc/elements/1.1/" xmlns:rdf="http://www.w3.org/1999/02/22-rdf-syntax-ns#" xmlns:xlink="http://www.w3.org/1999/xlink">
<defs>
<linearGradient id="d" x1="219.73" x2="215.17" y1="115.27" y2="107.55" gradientTransform="matrix(.26458 0 0 .26458 2.0512e-5 100)" gradientUnits="userSpaceOnUse" xlink:href="#c"/>
<linearGradient id="c" x1="219.73" x2="215.17" y1="115.27" y2="107.55" gradientUnits="userSpaceOnUse">
<stop stop-color="#4ad1d9" stop-opacity=".5" offset="0"/>
<stop stop-color="#c2fbff" stop-opacity=".8" offset="1"/>
</linearGradient>
<linearGradient id="i" x1="267.52" x2="315.96" y1="109.11" y2="77.82" gradientTransform="matrix(-.56617 -.018201 0 .62667 426.1 -226.72)" xlink:href="#a"/>
<linearGradient id="a" x1="215.48" x2="7.55" y1="116.96" y2="183.29" gradientUnits="userSpaceOnUse">
<stop stop-color="#168b9c" stop-opacity=".5" offset="0"/>
<stop stop-color="#07a687" offset="1"/>
</linearGradient>
<linearGradient id="g" x1="177.08" x2="234.4" y1="124.84" y2="-1" gradientTransform="matrix(-.56617 -.018201 0 .62667 426.1 -226.72)" xlink:href="#b"/>
<linearGradient id="b" x1="177.08" x2="234.4" y1="153.71" y2="27.88" gradientUnits="userSpaceOnUse">
<stop stop-color="#00e4ff" offset="0"/>
<stop stop-color="aqua" stop-opacity=".6" offset="1"/>
</linearGradient>
<linearGradient id="e" x1="153.75" x2="55.79" y1="107.78" y2="139.03" gradientTransform="matrix(-.56617 -.018201 0 .62667 426.1 -226.72)" xlink:href="#a"/>
<linearGradient id="l" x1="288.73" x2="284.17" y1="155.27" y2="147.55" gradientTransform="matrix(.26458 0 0 .26458 2.0512e-5 100)" xlink:href="#c"/>
<linearGradient id="k" x1="89.92" x2="74.88" y1="140.84" y2="126.97" gradientTransform="matrix(.23542 -.0075683 0 .26058 294.72 188.63)" gradientUnits="userSpaceOnUse">
<stop stop-color="#5340db" offset="0"/>
<stop stop-color="#e4bcff" offset="1"/>
</linearGradient>
<linearGradient id="j" x1="267.52" x2="315.96" y1="109.11" y2="77.82" gradientTransform="matrix(-.56617 -.018201 0 .62667 431.12 -151.03)" xlink:href="#a"/>
<linearGradient id="h" x1="177.08" x2="234.4" y1="124.84" y2="-1" gradientTransform="matrix(-.56617 -.018201 0 .62667 431.12 -151.03)" xlink:href="#b"/>
<linearGradient id="f" x1="153.75" x2="55.79" y1="107.78" y2="139.03" gradientTransform="matrix(-.56617 -.018201 0 .62667 431.12 -151.03)" xlink:href="#a"/>
</defs>
<metadata>
<rdf:RDF>
<cc:Work rdf:about="">
<dc:format>image/svg+xml</dc:format>
<dc:type rdf:resource="http://purl.org/dc/dcmitype/StillImage"/>
<dc:title/>
</cc:Work>
</rdf:RDF>
</metadata>
<g transform="translate(0,-100)">
<g transform="matrix(1 0 0 1.0738 1.4255 -8.9191)" fill="#f2f2f2" opacity=".4" stroke="#000" stroke-opacity=".028169">
<path d="m5.8208 232.9 100.01-50.457v-75.939l-100.01 39.608z" stroke-width=".26717px"/>
<path d="m105.83 106.5 100.54 50.804v76.461l-100.54-39.881z" stroke-width=".2688px"/>
</g>
<g transform="matrix(1 0 0 1.0309 .8963 -2.7172)">
<path d="m5.2886 233.6 101.07-50.537 101.07 50.537-101.07 50.537z" fill="#ccc" stroke-opacity="0"/>
<path d="m5.6588 233.42v5.9238l100.7 50.352v-5.9238z" fill="#808080" fill-opacity=".81569" stroke="#fff" stroke-opacity=".62911" stroke-width=".29619px"/>
<path d="m106.36 283.77 100.7-50.352v5.9238l-100.7 50.352z" fill="#808080" fill-opacity=".81569" stroke="#fff" stroke-opacity=".62745" stroke-width=".29619px"/>
</g>
<path class="cls-39" d="m103.07 218.18c0.62132-0.35737 1.1289-0.0731 1.133 0.64569a2.4772 2.4772 0 0 1 -1.1249 1.9452c-0.62131 0.35736-1.1289 0.0731-1.133-0.64163a2.4772 2.4772 0 0 1 1.1249 -1.9492z" fill="url(#d)" stroke-width=".40609"/>
<path class="cls-80" d="m75.049 234.43c0.62132-0.35736 1.1289-0.0731 1.133 0.64569a2.4772 2.4772 0 0 1 -1.1249 1.9452c-0.62133 0.35736-1.1289 0.0731-1.133-0.64163a2.4772 2.4772 0 0 1 1.1249 -1.9492z" fill="url(#l)" stroke-width=".40609"/>
<g transform="matrix(1 .046556 0 1 -7.2333 -2.227)">
<g class="cls-85" transform="matrix(-.46732 .0081833 0 .42221 206.36 194.12)" style="isolation:isolate">
<path class="cls-86" d="m84.85 80.78v-7.52c0 2.53 1.67 5.07 5 7v7.52c-3.33-1.93-5.01-4.47-5-7z" fill="none"/>
<path class="cls-95" d="m315.93 75.12c0 0.06 0 0.12-0.05 0.18a7 7 0 0 1 -0.8 1.57l-0.19 0.28a9.6 9.6 0 0 1 -1.34 1.48 13.47 13.47 0 0 1 -1.2 0.88c-0.35 0.25-0.65 0.51-1 0.74l-98.42 57.19v7.52l98.42-57.19 0.21-0.12c0.33-0.2 0.56-0.42 0.85-0.63a13.3 13.3 0 0 0 1.18 -0.87l0.11-0.08a9.78 9.78 0 0 0 1 -1.13c0.07-0.09 0.12-0.18 0.18-0.27l0.19-0.28c0.1-0.15 0.22-0.31 0.31-0.46a6.86 6.86 0 0 0 0.45 -1v-0.15c0-0.05 0-0.12 0.05-0.18a6.38 6.38 0 0 0 0.18 -0.62 5.77 5.77 0 0 0 0.11 -1v-0.15-7.52a5.87 5.87 0 0 1 -0.24 1.81z" fill="url(#i)"/>
<g class="cls-92" opacity=".85" style="mix-blend-mode:hard-light">
<path class="cls-96" d="m311.2 66.37-99-57.18c-6.64-3.83-17.36-3.85-24 0l-98.41 57.19c-6.6 3.84-6.54 10 0.1 13.88l99 57.18c6.64 3.83 17.36 3.85 24 0l98.42-57.19c6.6-3.83 6.54-10.04-0.11-13.88z" fill="url(#g)"/>
</g>
<path class="cls-97" d="m209.56 138.91c-0.42 0.14-0.85 0.27-1.28 0.39s-1.11 0.3-1.69 0.42-1.38 0.27-2.08 0.36l-0.48 0.07c-0.94 0.1-1.9 0.15-2.86 0.16h-0.45c-0.94 0-1.88-0.06-2.81-0.16h-0.43a26.9 26.9 0 0 1 -2.72 -0.47l-0.49-0.12a23.16 23.16 0 0 1 -2.35 -0.72l-0.42-0.14a18.53 18.53 0 0 1 -2.58 -1.22l-99-57.18c-3.35-1.93-5-4.47-5-7v7.52c0 2.53 1.67 5.07 5 7l99 57.18a18.54 18.54 0 0 0 2.45 1.18h0.13l0.41 0.14c0.5 0.18 1 0.36 1.52 0.51 0.27 0.08 0.56 0.14 0.83 0.2l0.49 0.12 0.45 0.11q0.83 0.17 1.68 0.29l0.59 0.07h0.42l0.64 0.07q0.83 0.07 1.67 0.09h1.73q0.94 0 1.88-0.12h0.2l0.47-0.07c0.5-0.06 1-0.12 1.48-0.21 0.21 0 0.4-0.11 0.61-0.15 0.58-0.12 1.13-0.26 1.69-0.42 0.3-0.08 0.61-0.13 0.91-0.23 0.14 0 0.24-0.12 0.38-0.17a19 19 0 0 0 3.33 -1.46v-7.52a19 19 0 0 1 -3.32 1.48z" fill="url(#e)"/>
</g>
<g transform="matrix(1.1239 -.01968 0 1.0154 -324 -83.84)" stroke-width=".40609">
<path class="cls-86" d="m435.96 307.79v-3.0538c0 1.0274-0.67817 2.0589-2.0305 2.8427v3.0538c1.3523-0.78376 2.0345-1.8152 2.0305-2.8426z" fill="none" style="isolation:isolate"/>
<path class="cls-89" d="m344.04 301.95 40.203-23.22c2.6965-1.5553 7.0498-1.5635 9.7462 0l39.964 23.22c2.6802 1.5594 2.6558 4.0609-0.0406 5.6366l-40.203 23.22c-2.6965 1.5553-7.0498 1.5635-9.7462 0l-39.968-23.22c-2.6802-1.5553-2.6558-4.0609 0.0447-5.6366z" fill="#f0f" fill-opacity=".68235" style="isolation:isolate"/>
<path class="cls-90" d="m435.96 304.74v3.0538c0 1.0274-0.67818 2.0589-2.0305 2.8426v-3.0538c1.3523-0.78376 2.0305-1.8152 2.0305-2.8427z" fill="url(#k)" style="isolation:isolate"/>
<path class="cls-91" d="m342.12 305.5c0 0.0244 0 0.0487 0.0203 0.0731a2.8427 2.8427 0 0 0 0.32488 0.63757l0.0771 0.11371a3.9066 3.9066 0 0 0 0.54417 0.60102 5.466 5.466 0 0 0 0.48731 0.35736c0.14213 0.10152 0.26396 0.20711 0.4061 0.30051l39.984 23.229a7.7158 7.7158 0 0 0 1.3523 0.59289c0.17056 0.0569 0.34518 0.10965 0.5198 0.15838 0.17462 0.0487 0.45076 0.12183 0.68629 0.17056 0.23554 0.0487 0.56041 0.10965 0.84468 0.14619l0.19492 0.0284c0.38173 0.0406 0.77158 0.0609 1.1614 0.065h0.18274c0.38173 0 0.76346-0.0244 1.1411-0.065h0.17462a10.916 10.916 0 0 0 1.1046 -0.19086l0.19899-0.0487a9.3726 9.3726 0 0 0 0.95432 -0.29239l0.17056-0.0569a7.5452 7.5452 0 0 0 1.0477 -0.49543l40.215-23.237v3.0538l-40.203 23.22a7.5005 7.5005 0 0 1 -0.99493 0.47919h-0.0528l-0.1665 0.0568c-0.20305 0.0731-0.40609 0.1462-0.61726 0.20711-0.10965 0.0325-0.22741 0.0568-0.33706 0.0812l-0.19899 0.0487-0.18274 0.0447q-0.33705 0.069-0.68223 0.11777l-0.2396 0.0284h-0.17056l-0.2599 0.0284q-0.33706 0.0284-0.67817 0.0366h-0.70255q-0.38172 0-0.76345-0.0487h-0.0812l-0.19493-0.0284c-0.20304-0.0244-0.40609-0.0487-0.60101-0.0853-0.0853 0-0.16244-0.0447-0.24772-0.0609-0.23554-0.0487-0.45889-0.10559-0.6863-0.17056-0.12183-0.0325-0.24772-0.0528-0.36954-0.0934-0.0569 0-0.0975-0.0487-0.15432-0.069a7.7158 7.7158 0 0 1 -1.3523 -0.59289l-39.968-23.224-0.0853-0.0487c-0.13401-0.0812-0.22741-0.17056-0.34518-0.25584a5.3807 5.3807 0 0 1 -0.47919 -0.35331l-0.0447-0.0325a3.9716 3.9716 0 0 1 -0.40609 -0.45889c-0.0284-0.0365-0.0487-0.0731-0.0731-0.10964l-0.0772-0.11371c-0.0406-0.0609-0.0893-0.12589-0.12589-0.1868a2.7858 2.7858 0 0 1 -0.18274 -0.4061v-0.0609c0-0.0203 0-0.0487-0.0203-0.0731a2.5949 2.5949 0 0 1 -0.0731 -0.25178 2.3391 2.3391 0 0 1 -0.0447 -0.40609v-0.0609-3.0538a2.3838 2.3838 0 0 0 0.069 0.75534z" fill="#be00ff" fill-opacity=".68235" style="isolation:isolate"/>
</g>
<g class="cls-85" transform="matrix(-.45904 .0080383 0 .41473 204.95 163.79)" fill="#fffeff" style="isolation:isolate">
<path class="cls-86" d="m84.85 109.65v-7.52c0 2.53 1.67 5.07 5 7v7.52c-3.33-1.93-5.01-4.47-5-7z"/>
<g class="cls-92" opacity=".85" style="mix-blend-mode:hard-light">
<path class="cls-93" d="m311.2 95.25-99-57.18c-6.64-3.83-17.36-3.85-24 0l-98.41 57.18c-6.6 3.84-6.54 10 0.1 13.88l99 57.18c6.64 3.83 17.36 3.85 24 0l98.42-57.19c6.6-3.83 6.54-10.04-0.11-13.87z" fill="#fffeff"/>
</g>
<path class="cls-94" d="m315.93 104c0 0.06 0 0.12-0.05 0.18a6.94 6.94 0 0 1 -0.8 1.57l-0.19 0.28a9.65 9.65 0 0 1 -1.34 1.48 13.48 13.48 0 0 1 -1.2 0.88c-0.35 0.25-0.64 0.51-1 0.74l-98.42 57.19a19 19 0 0 1 -3.33 1.46c-0.42 0.14-0.85 0.27-1.28 0.39s-1.11 0.3-1.69 0.42-1.38 0.27-2.08 0.36l-0.55 0.05c-0.94 0.1-1.9 0.15-2.86 0.16h-0.45c-0.94 0-1.88-0.06-2.81-0.16h-0.43a26.9 26.9 0 0 1 -2.72 -0.47l-0.49-0.12a23.16 23.16 0 0 1 -2.35 -0.72l-0.42-0.14a18.53 18.53 0 0 1 -2.58 -1.22l-99-57.18c-3.35-1.93-5-4.47-5-7v7.52c0 2.53 1.67 5.07 5 7l99 57.18a18.54 18.54 0 0 0 2.45 1.18h0.13l0.41 0.14c0.5 0.18 1 0.36 1.52 0.51 0.27 0.08 0.56 0.14 0.83 0.2l0.49 0.12 0.45 0.11q0.83 0.17 1.68 0.29l0.59 0.07h0.42l0.64 0.07q0.83 0.07 1.67 0.09h1.73q0.94 0 1.88-0.12h0.2l0.47-0.07c0.5-0.06 1-0.12 1.48-0.21 0.21 0 0.4-0.11 0.61-0.15 0.58-0.12 1.13-0.26 1.69-0.42 0.3-0.08 0.61-0.13 0.91-0.23 0.14 0 0.24-0.12 0.38-0.17a19 19 0 0 0 3.33 -1.46l98.42-57.19 0.21-0.12c0.33-0.2 0.56-0.42 0.85-0.63a13.17 13.17 0 0 0 1.18 -0.87l0.11-0.08a9.86 9.86 0 0 0 1 -1.13c0.07-0.09 0.12-0.18 0.18-0.27l0.19-0.28c0.1-0.15 0.22-0.31 0.31-0.46a6.87 6.87 0 0 0 0.45 -1v-0.15c0-0.05 0-0.12 0.05-0.18a6.37 6.37 0 0 0 0.18 -0.62 5.77 5.77 0 0 0 0.11 -1v-0.15-7.52a5.87 5.87 0 0 1 -0.16 1.85z"/>
</g>
<g class="cls-85" transform="matrix(-.46732 .0081833 0 .42221 208.7 162.13)" style="isolation:isolate">
<path class="cls-86" d="m84.85 80.78v-7.52c0 2.53 1.67 5.07 5 7v7.52c-3.33-1.93-5.01-4.47-5-7z" fill="none"/>
<path class="cls-95" d="m315.93 75.12c0 0.06 0 0.12-0.05 0.18a7 7 0 0 1 -0.8 1.57l-0.19 0.28a9.6 9.6 0 0 1 -1.34 1.48 13.47 13.47 0 0 1 -1.2 0.88c-0.35 0.25-0.65 0.51-1 0.74l-98.42 57.19v7.52l98.42-57.19 0.21-0.12c0.33-0.2 0.56-0.42 0.85-0.63a13.3 13.3 0 0 0 1.18 -0.87l0.11-0.08a9.78 9.78 0 0 0 1 -1.13c0.07-0.09 0.12-0.18 0.18-0.27l0.19-0.28c0.1-0.15 0.22-0.31 0.31-0.46a6.86 6.86 0 0 0 0.45 -1v-0.15c0-0.05 0-0.12 0.05-0.18a6.38 6.38 0 0 0 0.18 -0.62 5.77 5.77 0 0 0 0.11 -1v-0.15-7.52a5.87 5.87 0 0 1 -0.24 1.81z" fill="url(#j)"/>
<g class="cls-92" opacity=".85" style="mix-blend-mode:hard-light">
<path class="cls-96" d="m311.2 66.37-99-57.18c-6.64-3.83-17.36-3.85-24 0l-98.41 57.19c-6.6 3.84-6.54 10 0.1 13.88l99 57.18c6.64 3.83 17.36 3.85 24 0l98.42-57.19c6.6-3.83 6.54-10.04-0.11-13.88z" fill="url(#h)"/>
</g>
<path class="cls-97" d="m209.56 138.91c-0.42 0.14-0.85 0.27-1.28 0.39s-1.11 0.3-1.69 0.42-1.38 0.27-2.08 0.36l-0.48 0.07c-0.94 0.1-1.9 0.15-2.86 0.16h-0.45c-0.94 0-1.88-0.06-2.81-0.16h-0.43a26.9 26.9 0 0 1 -2.72 -0.47l-0.49-0.12a23.16 23.16 0 0 1 -2.35 -0.72l-0.42-0.14a18.53 18.53 0 0 1 -2.58 -1.22l-99-57.18c-3.35-1.93-5-4.47-5-7v7.52c0 2.53 1.67 5.07 5 7l99 57.18a18.54 18.54 0 0 0 2.45 1.18h0.13l0.41 0.14c0.5 0.18 1 0.36 1.52 0.51 0.27 0.08 0.56 0.14 0.83 0.2l0.49 0.12 0.45 0.11q0.83 0.17 1.68 0.29l0.59 0.07h0.42l0.64 0.07q0.83 0.07 1.67 0.09h1.73q0.94 0 1.88-0.12h0.2l0.47-0.07c0.5-0.06 1-0.12 1.48-0.21 0.21 0 0.4-0.11 0.61-0.15 0.58-0.12 1.13-0.26 1.69-0.42 0.3-0.08 0.61-0.13 0.91-0.23 0.14 0 0.24-0.12 0.38-0.17a19 19 0 0 0 3.33 -1.46v-7.52a19 19 0 0 1 -3.32 1.48z" fill="url(#f)"/>
</g>
</g>
</g>
</svg>
